<svg id="illustration" xmlns="http://www.w3.org/2000/svg" viewBox="0 0 350 350"><defs><style>.cls-1{fill:none;}.cls-2{fill:#ececeb;}.cls-3{clip-path:url(#clip-path);}.cls-4{fill:#c4c4c4;}.cls-10,.cls-11,.cls-12,.cls-13,.cls-14,.cls-15,.cls-16,.cls-17,.cls-18,.cls-19,.cls-20,.cls-21,.cls-22,.cls-4,.cls-5,.cls-6,.cls-7,.cls-8,.cls-9{fill-rule:evenodd;}.cls-5{fill:#6f7173;}.cls-6{fill:#4f5253;}.cls-7{fill:#9da1a2;}.cls-8{fill:#738d57;}.cls-9{fill:#474747;}.cls-10{fill:#5a753d;}.cls-11{fill:#3f8f6f;}.cls-12{fill:#99c26d;}.cls-13{fill:#35785d;}.cls-14{fill:#fde4d5;}.cls-15{fill:#c2917d;}.cls-16{fill:#f5cab3;}.cls-17{fill:#fff0e8;}.cls-18{fill:#fff;}.cls-19{fill:#446125;}.cls-20{fill:#72c9a6;}.cls-21{fill:#54b08b;}.cls-22{fill:#2b2b2b;}</style><clipPath id="clip-path"><circle class="cls-1" cx="175" cy="175" r="175"/></clipPath></defs><circle class="cls-2" cx="175" cy="175" r="175"/><g class="cls-3"><polygon class="cls-4" points="11.75 240.93 132.08 242 112.56 267.06 66.6 268.88 11.75 240.93"/><path class="cls-5" d="M11.66,343.22a89.55,89.55,0,0,0,12.45,4.26c17.91,1.82,36,2.34,53.89,3.84.16,0,.32,0,.48,0L67.63,259.6,11.75,240.93,6.87,280.54l-.28,30.11L1.1,331.09A41.26,41.26,0,0,1,11.66,343.22Z"/><path class="cls-6" d="M78,351.32c19.1,1.59,38.2-1.9,57.26-.7l-19.88-97L67.63,259.6l-2.31,20.92-4.57,69.59C66.51,350.46,72.26,350.84,78,351.32Z"/><path class="cls-7" d="M.68,330.77a40.33,40.33,0,0,1,7.37,7.17L29.5,348l3.34.28L41,293l-20.19-3.6-14-8.85.76,18.25-4.3,10.5Z"/><polygon class="cls-4" points="41.04 292.99 3.33 309.29 6.87 280.54 41.04 292.99"/><path class="cls-8" d="M78,351.32c20.48,1.7,41-2.43,61.38-.36,20.06,2,40.18,5.25,60.39,3.61,4.24-.34,8.48-.82,12.73-1.23V353L192.6,290.6l-80-23.54L72.43,350.89C74.29,351,76.14,351.16,78,351.32Z"/><polygon class="cls-9" points="183.1 327.13 161.6 350.84 141.24 324.12 163.65 320.19 183.1 327.13"/><path class="cls-10" d="M77.87,351.31l4-6.1V302.62l-16.58-22.1-29.68,68C49.7,349.55,63.82,350.14,77.87,351.31Z"/><polygon class="cls-11" points="207.24 287.49 237.22 313.47 230.78 331.53 212.51 352.97 207.24 287.49"/><path class="cls-12" d="M230.7,352.52c4.84.2,9.65.78,14.47.86,6.72-5.67,13.16-11.71,19.94-17.28l-27.9-22.63L212.51,353l.45.32A129.82,129.82,0,0,1,230.7,352.52Z"/><polygon class="cls-12" points="163.65 320.19 142.65 283.17 112.56 267.06 106.9 348.06 163.65 320.19"/><polygon class="cls-12" points="207.24 287.49 172.2 294.92 163.65 320.19 212.51 352.97 207.24 287.49"/><polygon class="cls-11" points="112.56 267.06 65.32 280.52 81.9 345.21 112.56 267.06"/><polygon class="cls-10" points="201.11 257.52 178.63 275.6 178.63 309.29 207.24 287.49 201.11 257.52"/><polygon class="cls-10" points="121.43 224.89 112.56 267.06 138.91 294.46 137.08 260.25 121.43 224.89"/><polygon class="cls-13" points="69.65 235.04 121.43 224.89 124.24 209.97 115.27 193.47 94.59 206.62 69.65 235.04"/><polygon class="cls-11" points="289.79 135.48 268.15 181.25 261.23 238.66 275.55 228.37 288.57 225.25 301.93 218.69 299.88 146.49 298.35 137.37 289.79 135.48"/><polygon class="cls-12" points="275.71 179.85 288.57 225.25 261.23 238.66 265.11 220.98 274.6 216.14 271.08 203.08 275.71 179.85"/><polygon class="cls-14" points="289.79 135.48 253.56 266.38 201.11 257.52 174.31 299.16 163.65 320.19 152.57 283.4 115.27 193.47 183.37 131.43 254.93 97.44 289.79 135.48"/><polygon class="cls-15" points="241.17 103.98 290.1 135.82 272.83 109.11 254.93 91.81 243.1 95.18 241.17 103.98"/><polygon class="cls-16" points="228.24 194.75 219.2 154 208.6 133.55 235.85 132.87 236.56 145.15 228.24 194.75"/><polygon class="cls-16" points="248.16 147.28 254.93 136.95 278.08 148.53 242.21 180.32 248.16 147.28"/><polygon class="cls-15" points="239.23 196.84 232.07 203.46 228.24 194.75 239.23 196.84"/><polygon class="cls-16" points="183.37 131.43 158.38 248.51 179.66 266.38 189.87 283.4 178.63 309.29 163.65 320.19 138.91 294.46 121.43 224.89 124.24 209.97 115.27 193.47 183.37 131.43"/><polygon class="cls-17" points="248.16 147.28 239.23 196.84 228.24 194.75 236.56 145.15 248.16 147.28"/><polygon class="cls-15" points="183.37 131.43 158.46 172.33 133.78 188.12 159.56 198.26 121.43 224.89 115.27 193.47 140.1 166.44 183.37 131.43"/><polygon class="cls-11" points="254.93 136.95 270.59 134.23 278.08 148.53 254.93 136.95"/><polygon class="cls-11" points="235.85 132.87 224.27 125.37 208.6 133.55 235.85 132.87"/><polygon class="cls-8" points="258.17 223.46 223.95 244.53 191.95 211.78 258.17 223.46"/><polygon class="cls-18" points="249.64 224.04 228.24 224.78 200.26 214.99 218.57 231.91 231.62 234.1 249.64 224.04"/><polygon class="cls-19" points="258.17 223.46 230.12 214.26 191.95 211.78 228.24 225.81 258.17 223.46"/><polygon class="cls-12" points="157.71 154.81 159.56 198.26 104.6 203.19 118.16 188.15 147.98 186.68 146 162.78 157.71 154.81"/><polygon class="cls-15" points="201.11 257.52 139.46 244.53 189.87 283.4 201.11 257.52"/><polygon class="cls-11" points="183.37 131.43 104.6 158.64 51.25 194.17 69.65 235.04 183.37 131.43"/><polygon class="cls-11" points="178.63 117.03 130.27 57.94 46.49 133.55 178.63 117.03"/><polygon class="cls-11" points="46.49 133.55 11.75 166.24 51.25 194.17 54.53 158.64 46.49 133.55"/><polygon class="cls-20" points="254.93 97.44 254.93 85.48 239.26 58.62 130.27 57.94 164.99 113.02 254.93 97.44"/><polygon class="cls-21" points="254.93 97.44 299.88 146.49 324.4 116.52 239.26 58.62 254.93 97.44"/><polygon class="cls-21" points="254.93 97.44 51.25 194.17 46.49 133.55 254.93 97.44"/><path class="cls-22" d="M269.12,167.61a7,7,0,1,1-7-7.05A7,7,0,0,1,269.12,167.61Z"/><path class="cls-22" d="M223.48,157.39a7,7,0,1,1-7-7A7,7,0,0,1,223.48,157.39Z"/></g></svg>