<svg id="illustration" xmlns="http://www.w3.org/2000/svg" viewBox="0 0 350 350"><defs><style>.cls-1{fill:none;}.cls-2{fill:#ececeb;}.cls-3{clip-path:url(#clip-path);}.cls-4{fill:#543042;}.cls-5{fill:#4f5253;}.cls-6{fill:#785d88;}.cls-7{fill:#594165;}.cls-8{fill:#9075a0;}.cls-9{fill:#d0af96;}.cls-10{fill:#efd3c2;}.cls-11{fill:#fff;}.cls-12{fill:#a9846c;}.cls-13{fill:#f7e6dc;}.cls-14{fill:#734d60;}.cls-15{fill:#2b2b2b;}.cls-16{fill:#b3889d;}.cls-17{fill:#a688ba;}.cls-18{fill:#737373;}.cls-19{fill:#8f8f8f;}.cls-20{fill:#cececd;}.cls-21{fill:#a3a3a3;}</style><clipPath id="clip-path"><circle class="cls-1" cx="175" cy="175" r="175"/></clipPath></defs><circle class="cls-2" cx="175" cy="175" r="175"/><g class="cls-3"><path class="cls-4" d="M86.21,352.49c7-.39,13.9-.66,20.86-.72,8.88-.08,17.69-.46,26.53-.82l-9.18-65.18-28.93,7.82,6.82,22.53L89.5,331.78Z"/><polygon id="_170304424" data-name=" 170304424" class="cls-5" points="93.06 309.29 89.5 331.77 89.5 331.77 124.77 349.28 132.29 341.65 124.42 285.76 97.29 299.54 93.06 309.29"/><polygon id="_170304280" data-name=" 170304280" class="cls-6" points="45.12 82.96 84.6 155.66 104.81 146.06 116.77 106.49 109.75 91.06 45.12 82.96"/><polygon id="_170304136" data-name=" 170304136" class="cls-7" points="180.19 62.81 106.39 93.95 45.12 82.96 99.31 24.73 180.19 62.81"/><polygon id="_170304208" data-name=" 170304208" class="cls-8" points="246.88 95.67 125 194.34 92.46 140.38 103.48 28.16 246.88 95.67"/><polygon id="_170304064" data-name=" 170304064" class="cls-6" points="241.22 55.63 278.62 114.35 246.7 193.85 215.3 59.62 241.22 55.63"/><polygon id="_170303992" data-name=" 170303992" class="cls-7" points="241.22 55.63 278.62 114.35 215.3 59.62 241.22 55.63"/><polygon id="_170303920" data-name=" 170303920" class="cls-9" points="151.39 290.97 75.93 141.04 122.07 103.22 162.7 151.56 206.31 253.52 191.49 322.89 151.39 290.97"/><polygon id="_170303848" data-name=" 170303848" class="cls-10" points="233.26 75.14 256.69 248.41 161.45 265.4 120.32 103.67 233.26 75.14"/><polygon id="_170303776" data-name=" 170303776" class="cls-11" points="198.19 232.47 183.12 226.97 199.09 222.15 211.07 224.71 223.85 222.79 228.59 223.45 207.31 233.12 198.19 232.47"/><polygon id="_170303704" data-name=" 170303704" class="cls-12" points="205.85 257.2 191.57 323.34 151 266.39 205.85 257.2"/><polygon id="_170303632" data-name=" 170303632" class="cls-6" points="110.51 122.29 139.99 264.33 58.83 154.83 110.51 122.29"/><polygon id="_170303560" data-name=" 170303560" class="cls-13" points="130.47 177.07 106.94 182.51 119.1 212.53 138.88 204.44 130.47 177.07"/><polygon id="_170303488" data-name=" 170303488" class="cls-12" points="125.48 184.07 114.58 187.18 119.25 195.89 125.48 184.07"/><polygon id="_170303416" data-name=" 170303416" class="cls-14" points="131.09 200.25 136.55 217.35 127.66 219.99 123.3 202.89 131.09 200.25"/><polygon id="_170303344" data-name=" 170303344" class="cls-13" points="206.62 149.69 217.58 196.46 200.86 198.82 193.9 151.37 206.62 149.69"/><polygon id="_170303272" data-name=" 170303272" class="cls-12" points="208.28 206.54 217.58 196.46 200.86 198.82 208.28 206.54"/><polygon id="_170303200" data-name=" 170303200" class="cls-9" points="162 155.66 193.9 151.37 200.86 198.82 162 155.66"/><polygon id="_170303128" data-name=" 170303128" class="cls-9" points="215.09 185.83 231.29 143.72 206.62 149.69 215.09 185.83"/><polygon id="_170303056" data-name=" 170303056" class="cls-15" points="157.91 145.41 184 156.27 148.94 156.8 157.91 145.41"/><polygon id="_170302840" data-name=" 170302840" class="cls-14" points="228.59 223.45 207.11 216.5 183.12 226.97 228.59 223.45"/><polygon id="_170302768" data-name=" 170302768" class="cls-16" points="206.02 238.17 228.59 223.45 207.37 229.21 183.12 226.97 206.02 238.17"/><polygon id="_170302696" data-name=" 170302696" class="cls-15" points="238.37 141.53 211.65 150.31 231.88 130.49 238.37 141.53"/><polygon id="_170302624" data-name=" 170302624" class="cls-8" points="279.86 73.55 136.98 169.17 40.53 151.48 63.22 110.43 226.76 27.78 279.86 73.55"/><polygon id="_169442432" data-name=" 169442432" class="cls-7" points="40.53 151.47 60.29 110.89 226.76 27.78 40.53 151.47"/><polygon id="_169442360" data-name=" 169442360" class="cls-17" points="279.86 73.55 136.98 169.17 226.76 27.78 279.86 73.55"/><path class="cls-5" d="M233.36,354.52c5-.21,10-.39,15-.71,4.11-.81,8.2-1.79,12.21-3,.43-.27.87-.55,1.29-.84,4.06-3.32,8.13-6.67,12.36-9.73l-33.34-52.65-10.43-.88-3.73,16.5L210,331.71l22.34,22.86Z"/><path class="cls-18" d="M141.41,350.65c10.1-.36,19.94.92,29.94,2.65A56.36,56.36,0,0,1,185.21,358c4.53.09,9.07-.07,13.6-.37l4.11-22.15-10.78-19.34-32-15.31-29.92-17.24-5.81,2.2-11.77,15.59,11.15,50C129.66,351.12,135.52,350.86,141.41,350.65Z"/><path class="cls-19" d="M193,357.91c5.94-.22,11.87-.74,17.79-1.34,7.5-1,15-1.73,22.6-2.05l3.59-.15,3.28-57.8-4.13-6.75-23.56-6,6,12.7-26.42,19.61Z"/><polygon id="_169441928" data-name=" 169441928" class="cls-20" points="203.74 265.25 212.55 283.83 217.85 291.58 218.56 296.51 207.53 313.24 192.14 316.12 203.74 265.25"/><polygon id="_169441856" data-name=" 169441856" class="cls-20" points="130.23 283.57 139.51 263.59 192.14 316.12 152.91 316 130.23 283.57"/><polygon id="_169441784" data-name=" 169441784" class="cls-19" points="130.23 283.56 95.61 292.81 93.04 309.18 93.06 309.29 137.83 294.44 130.23 283.56"/><polygon id="_169441712" data-name=" 169441712" class="cls-21" points="212.54 283.81 240.86 287.59 240.23 296.57 218.56 296.51 216.51 292.17 212.54 283.81"/><polygon id="_169441424" data-name=" 169441424" class="cls-21" points="185.1 345.18 192.74 337.75 199.07 345.55 192.88 353.17 185.1 345.18"/><circle class="cls-15" cx="172.6" cy="168.67" r="6.5"/><circle class="cls-15" cx="226.4" cy="160.93" r="6.5"/></g></svg>