<svg id="illustration" xmlns="http://www.w3.org/2000/svg" viewBox="0 0 350 350"><defs><style>.cls-1{fill:none;}.cls-2{fill:#ececeb;}.cls-3{clip-path:url(#clip-path);}.cls-4{fill:#96637c;}.cls-10,.cls-11,.cls-12,.cls-13,.cls-14,.cls-15,.cls-4,.cls-5,.cls-6,.cls-7,.cls-8{fill-rule:evenodd;}.cls-5{fill:#dfbda5;}.cls-6{fill:#c3987b;}.cls-7{fill:#8b6651;}.cls-8{fill:#e8cab6;}.cls-9{fill:#2b2b2b;}.cls-10{fill:#9075a0;}.cls-11{fill:#734d60;}.cls-12{fill:#543042;}.cls-13{fill:#b3889d;}.cls-14{fill:#d1a1b8;}.cls-15{fill:#785d88;}</style><clipPath id="clip-path"><circle class="cls-1" cx="175" cy="175" r="175"/></clipPath></defs><circle class="cls-2" cx="175" cy="175" r="175"/><g class="cls-3"><path class="cls-4" d="M134,358.37c20.66,0,41.45.65,62.08-.54,17.76-1,35.42-3.29,53.19-4.22a140.42,140.42,0,0,1,32.26,2.16L282,350l45.53-.19L280.3,288.33H259l-19.52-13.39H140.29l-14,7.29L108,283.46l7.49,12.68,4.68,22-22,13.28L71.5,340.68l5.19,17.69Z"/><polygon class="cls-5" points="140.29 295.03 146.99 272.5 140.29 240.24 129.73 239.13 121.42 248.15 119.9 236.83 115.64 233.85 115.64 158.36 242.87 126.1 262.34 182.11 284.56 258.5 239.52 274.94 221.87 309.89 213.34 349.81 207.12 323.7 193.86 309.64 171.41 295.38 140.29 295.03"/><polygon class="cls-6" points="144.61 151.02 154.29 167.19 157.94 176.93 188.99 291.98 239.52 274.94 213.34 349.81 193.86 309.64 140.29 295.03 140.29 240.24 121.42 248.15 115.64 233.85 115.64 158.36 144.61 151.02"/><polygon class="cls-7" points="130.85 218.63 142.12 223.8 127.81 232.02 124.91 224.57 130.85 218.63"/><polygon class="cls-6" points="157.94 176.93 184.73 174.19 204.82 206.76 189.48 160.31 157.94 176.93"/><polygon class="cls-6" points="238.91 150.75 219.15 176.48 211.9 153.66 238.91 150.75"/><polygon class="cls-8" points="211.9 153.66 226.13 200.67 204.82 206.76 189.48 160.31 211.9 153.66"/><polygon class="cls-7" points="226.13 200.67 220.04 213.45 204.82 206.76 226.13 200.67"/><polygon class="cls-7" points="171.41 295.38 226.43 312.38 239.52 274.94 171.41 295.38"/><circle class="cls-9" cx="178.34" cy="175" r="6.54"/><circle class="cls-9" cx="226.43" cy="160.31" r="6.54"/><polygon class="cls-10" points="235.86 137.36 154.29 167.19 157.94 176.93 238.91 150.75 235.86 137.36"/><polygon class="cls-7" points="259.61 220.76 183.14 243.27 184.97 249.97 262.04 226.85 259.61 220.76"/><polygon class="cls-10" points="115.64 158.36 140.29 209.19 115.64 233.85 115.64 158.36"/><polygon class="cls-11" points="46.24 215.59 60.43 209.22 68.15 198.54 84.69 162.06 95.03 118.62 108.99 94.06 113.81 62.79 155.97 56.53 194.77 37.22 217.31 68.16 241 88.93 259.52 113.69 276.95 129.14 290.54 129.03 306.78 121.23 304.95 144.36 274.08 165.9 262.34 182.11 255.56 153.94 242.87 126.1 176.17 139.06 115.64 158.36 113.2 201.28 115.64 233.85 79.37 231.72 48.06 238.72 51.33 227.98 46.24 215.59"/><polygon class="cls-11" points="46.24 215.59 102.85 219.24 68.15 198.54 46.24 215.59"/><polygon class="cls-4" points="102.85 219.24 110.16 146.8 95.03 118.62 68.15 198.54 102.85 219.24"/><polygon class="cls-12" points="110.16 146.8 195.38 121.84 113.81 62.79 95.03 118.62 110.16 146.8"/><polygon class="cls-11" points="195.38 121.84 241.04 107.84 241 88.93 194.77 37.22 176.97 108.51 195.38 121.84"/><polygon class="cls-13" points="194.77 37.22 176.97 108.51 113.81 62.79 194.77 37.22"/><polygon class="cls-12" points="276.95 129.14 272.69 154.71 241.04 107.84 241 88.93 276.95 129.14"/><polygon class="cls-13" points="276.95 129.14 272.69 154.71 304.95 144.36 306.78 121.23 276.95 129.14"/><polygon class="cls-4" points="304.95 144.36 262.34 182.11 242.87 126.1 241.04 107.84 272.69 154.71 304.95 144.36"/><polygon class="cls-12" points="110.16 146.8 115.64 158.36 115.64 233.85 48.06 238.72 46.24 215.59 102.85 219.24 110.16 146.8"/><polygon class="cls-4" points="241.04 107.84 195.38 121.84 110.16 146.8 115.64 158.36 242.87 126.1 241.04 107.84"/><polygon class="cls-4" points="158.86 59.75 164.33 27.48 136.33 0.7 158.86 59.75"/><polygon class="cls-14" points="158.86 59.75 136.33 0.7 129.03 34.18 158.86 59.75"/><polygon class="cls-7" points="140.29 240.24 154.9 233.54 140.29 260.33 140.29 240.24"/><polygon class="cls-4" points="193.86 309.64 140.29 295.03 108.03 283.46 120.2 318.16 213.34 349.81 193.86 309.64"/><polygon class="cls-12" points="140.29 274.94 108.03 283.46 140.29 295.03 140.29 274.94"/><polygon class="cls-4" points="239.52 274.94 213.34 349.81 280.3 288.33 259.04 288.33 239.52 274.94"/><polygon class="cls-13" points="239.52 274.94 280.3 288.33 237.77 327.38 239.52 274.94"/><path class="cls-12" d="M249.31,353.61a140.7,140.7,0,0,1,32.79,2.25l-1.8-67.53-42.53,39.05,4,26.7Q245.54,353.81,249.31,353.61Z"/><path class="cls-12" d="M134,358.37c17.14,0,34.37.44,51.53-.09l-1.76-18.5L130.05,321.5l-1.21,36.87Z"/><polygon class="cls-13" points="128.84 358.37 130.04 321.5 120.2 318.16 71.5 340.68 106.74 358.37 128.84 358.37"/><path class="cls-15" d="M241.77,354.08l-4-26.7-24.43,22.43.77,6.65C223.33,355.64,232.54,354.73,241.77,354.08Z"/><path class="cls-10" d="M196.12,357.83c6-.35,12-.84,18-1.37l-.77-6.65-29.53-10,1.76,18.5C189.09,358.17,192.61,358,196.12,357.83Z"/></g></svg>