<svg id="illustration" xmlns="http://www.w3.org/2000/svg" viewBox="0 0 350 350"><defs><style>.cls-1{fill:none;}.cls-2{fill:#ececeb;}.cls-3{clip-path:url(#clip-path);}.cls-18,.cls-4{fill:#b3889d;}.cls-17,.cls-20,.cls-4,.cls-5,.cls-9{fill-rule:evenodd;}.cls-5,.cls-6{fill:#734d60;}.cls-7{fill:#594165;}.cls-17,.cls-8{fill:#c3987b;}.cls-9{fill:#96637c;}.cls-10{fill:#a688ba;}.cls-11{fill:#dfbda5;}.cls-12{fill:#8b6651;}.cls-13,.cls-20{fill:#9075a0;}.cls-14{fill:#e8cab6;}.cls-15{fill:#fff;}.cls-16,.cls-19{fill:#2b2b2b;}.cls-19{opacity:0.2;}</style><clipPath id="clip-path"><circle class="cls-1" cx="175" cy="175" r="175"/></clipPath></defs><circle class="cls-2" cx="175" cy="175" r="175"/><g class="cls-3"><polygon class="cls-4" points="245.08 229.03 266.18 301.84 308.87 170.06 266.52 144.94 245.08 229.03"/><polygon class="cls-5" points="249.56 215.76 219.06 271.79 267.68 303.47 249.56 215.76"/><polygon class="cls-5" points="258.77 302.55 224.16 266.69 211.92 288.76 258.77 302.55"/><polygon class="cls-5" points="308.87 170.06 268.84 204.73 265.53 126.18 308.87 170.06"/><polygon class="cls-6" points="60.79 257.44 90.11 308.74 133.25 305.65 60.79 257.44"/><polygon class="cls-6" points="139.47 295.8 132.66 340.16 163.42 353.26 139.47 295.8"/><polygon class="cls-7" points="253.39 479.49 213.59 515.3 168.85 516.42 109.81 403.12 139.28 372.18 162.27 312.84 201 344.62 220.96 321.36 222.28 270.41 259.8 428.66 253.39 479.49"/><polygon class="cls-8" points="99.67 211.59 115.61 276.1 217.66 375.1 222.28 279.84 216.36 266.39 117.77 89.56 109.01 153.06 101.67 157.97 99.67 211.59"/><polygon class="cls-9" points="46.62 165.45 46.25 203.52 36.38 243.64 132.44 307.56 146.31 331.72 139.47 295.8 104.44 215.84 64.52 191.65 46.62 165.45"/><polygon class="cls-10" points="266.5 296.24 327.51 313.06 331.77 377.08 278.3 372.71 266.5 296.24"/><polygon class="cls-11" points="107.42 164.65 122.7 198.23 99.67 211.59 63.96 183.25 107.42 164.65"/><polygon class="cls-6" points="55.2 234 139.47 295.8 104.44 215.84 87.55 177.72 55.2 234"/><polygon class="cls-8" points="113.04 191.2 105.46 173.65 91.61 181.55 113.04 191.2"/><polygon class="cls-12" points="122.7 198.23 112.75 234.92 101.99 210 122.7 198.23"/><polygon class="cls-13" points="243.84 283.33 266.5 296.24 278.01 370.72 265.2 422.93 207.74 395.34 201 344.62 219.32 308.74 243.84 283.33"/><polygon class="cls-7" points="243.84 283.33 234.17 307.51 222.28 310.59 228.5 319.2 201 344.62 222.28 270.41 243.84 283.33"/><polygon class="cls-10" points="106.68 298.92 90.11 308.74 109.81 403.12 134.37 456.54 214.42 480.69 197.42 436.97 207.74 395.34 201 344.62 162.48 312.99 106.68 298.92"/><polygon class="cls-7" points="129.57 273.78 106.68 298.92 128.91 327.81 155.55 321.66 157.74 338.88 201 344.62 129.57 273.78"/><polygon class="cls-11" points="327.51 313.06 365.59 285.96 397.22 294.49 369.44 352.82 327.51 313.06"/><polygon class="cls-8" points="331.49 370.28 369.44 352.82 327.51 313.06 327.51 313.06 331.49 370.28"/><polygon class="cls-12" points="223.96 265.06 162 273.2 209.79 313.55 223.96 265.06"/><polygon class="cls-11" points="152.68 274.28 274.59 258.57 260.1 74.43 197.36 65.24 117.77 89.56 152.68 274.28"/><polygon class="cls-6" points="197.36 142.27 192.71 137.16 164.23 129.88 148.59 150.55 165.62 137.94 197.36 142.27"/><polygon class="cls-14" points="223.44 150.55 208.35 153.11 215.99 193.27 232.42 190.21 223.44 150.55"/><polygon class="cls-8" points="197.36 142.27 208.35 153.11 212.98 178 148.59 150.55 165.62 137.94 197.36 142.27"/><polygon class="cls-8" points="224.45 139.02 223.44 150.55 228.79 174.29 258.51 126.79 242.2 125.09 224.45 139.02"/><polygon class="cls-12" points="232.42 190.21 226.21 197.87 215.99 193.27 232.42 190.21"/><polygon class="cls-8" points="250.61 205.05 228.11 210.47 189.23 212.01 204.79 238.47 250.54 232.81 250.61 205.05"/><polygon class="cls-15" points="245.08 229.03 245.13 211.34 228.25 214.8 198.56 216.54 207.58 233.68 245.08 229.03"/><polygon class="cls-8" points="191.64 202.07 183.17 210.5 181.44 226 174.69 208.68 191.64 202.07"/><polygon class="cls-8" points="246.88 193.27 254.5 202.07 257.05 215.38 260.59 197.87 246.88 193.27"/><path class="cls-16" d="M175.32,163.46a7.71,7.71,0,1,0,7.7-7.7A7.7,7.7,0,0,0,175.32,163.46Z"/><path class="cls-16" d="M234.45,153.05a7.71,7.71,0,1,0,7.71-7.7A7.71,7.71,0,0,0,234.45,153.05Z"/><line class="cls-1" x1="80.95" y1="181.55" x2="139.14" y2="274.4"/><polygon class="cls-17" points="122.99 117.78 204.83 64.89 265.04 113.51 267.51 167.67 204.93 83.61 122.99 117.78"/><polygon class="cls-6" points="224.45 139.02 225.69 131.43 234.86 123.95 240.86 119.05 258.51 126.79 242.2 125.09 224.45 139.02"/><polygon class="cls-4" points="281.97 73.82 308.87 170.06 157.7 29.45 204.83 64.9 281.97 73.82"/><polygon class="cls-5" points="46.62 165.45 122.99 117.79 107.42 164.65 87.55 177.72 46.62 165.45"/><polyline class="cls-9" points="122.99 117.79 61.66 89.09 46.62 165.45"/><polygon class="cls-4" points="157.7 29.45 204.83 64.9 122.99 117.78 61.66 89.09 157.7 29.45"/><polygon class="cls-9" points="281.97 73.82 196.79 69.72 157.7 29.45 281.97 73.82"/><polygon class="cls-5" points="116.29 183.81 107.42 164.65 122.99 117.78 116.29 183.81"/><polygon class="cls-18" points="36.38 243.64 55.2 234 87.55 177.72 46.62 165.45 36.38 243.64"/><polygon class="cls-19" points="237.85 128.3 234.86 123.95 240.86 119.05 258.51 126.79 242.2 125.09 237.85 128.3"/><polygon class="cls-20" points="90.11 308.74 31.71 384.32 70.25 435.99 109.81 403.12 90.11 308.74"/></g></svg>