<svg id="illustration" xmlns="http://www.w3.org/2000/svg" viewBox="0 0 350 350"><defs><style>.cls-1{fill:none;}.cls-2{fill:#ececeb;}.cls-3{clip-path:url(#clip-path);}.cls-4{fill:#d0ab92;}.cls-10,.cls-11,.cls-12,.cls-13,.cls-4,.cls-5,.cls-6,.cls-7,.cls-8,.cls-9{fill-rule:evenodd;}.cls-5{fill:#b48c71;}.cls-6{fill:#594165;}.cls-7{fill:#d8bca9;}.cls-8{fill:#83624d;}.cls-9{fill:#785d88;}.cls-10{fill:#9075a0;}.cls-11{fill:#474747;}.cls-12{fill:#6f7173;}.cls-13{fill:#b3889d;}.cls-14{fill:#2b2b2b;}</style><clipPath id="clip-path"><circle class="cls-1" cx="175" cy="175" r="175"/></clipPath></defs><circle class="cls-2" cx="175" cy="175" r="175"/><g class="cls-3"><polygon class="cls-4" points="210.02 100.05 226.89 81.81 246.08 78.19 253.31 96.36 253.87 120.93 273.95 231.2 223.54 244.02 163.56 248.15 134.42 144.15 128.59 95.13 170.14 90.1 210.02 100.05"/><polygon class="cls-5" points="154.28 132.84 196.35 157.43 207.28 184.21 204.96 152.62 199.63 135.57 154.28 132.84"/><polygon class="cls-5" points="220.4 121.36 215.48 133.38 214.73 145.86 221.03 161.13 248.81 115.9 235.7 101.14 220.4 121.36"/><polygon class="cls-6" points="199.63 135.57 157.01 122.46 154.28 132.84 191.98 144.86 199.63 135.57"/><polygon class="cls-6" points="215.48 114.81 235.7 101.14 248.81 115.9 241.16 121.91 232.15 111.53 220.4 121.36 215.48 114.81"/><polygon class="cls-7" points="215.48 133.38 224.77 179.84 217.35 184.85 207.28 184.21 199.63 135.57 215.48 133.38"/><polygon class="cls-8" points="242.25 209.09 209.12 211.31 183.35 203.45 187.58 193.2 173.41 202.26 177.09 220.02 182.06 210.46 209.12 218.31 242.25 209.09"/><polygon class="cls-5" points="128.59 95.13 104 125.19 110.96 148.52 128.04 177.1 120.35 179.17 116.02 187.49 106.95 180.95 99.63 165.08 91.48 177.58 81.59 183.11 96.26 195.19 102.91 209.89 107.15 219.13 109.33 237.68 119.85 283.12 211.65 278.75 211.65 258.53 273.95 231.2 163.56 248.15 141.15 139.4 128.59 95.13"/><polygon class="cls-4" points="116.02 187.49 119.85 196.23 102.91 209.89 81.59 183.11 99.63 165.08 116.02 187.49"/><polygon class="cls-6" points="254.19 122.67 261.39 69.45 246.08 78.19 254.19 122.67"/><polygon class="cls-9" points="210.02 100.05 261.39 69.45 206.74 35.02 202.5 70.67 210.02 100.05"/><polygon class="cls-10" points="210.02 100.05 206.74 35.02 64.65 88.58 95.3 97.94 128.59 95.13 210.02 100.05"/><polygon class="cls-9" points="64.65 88.58 59.19 171.64 83.98 150.71 104 125.19 128.59 95.13 64.65 88.58"/><polygon class="cls-6" points="104 125.19 128.04 177.1 116.02 187.49 99.63 165.08 81.59 183.11 59.19 171.64 104 125.19"/><polygon class="cls-8" points="91.43 184.21 97.99 177.65 106.18 191.31 91.43 184.21"/><polygon class="cls-8" points="102.91 209.89 114.93 200.06 109.53 238.55 102.91 209.89"/><polygon class="cls-8" points="144.64 250.59 273.95 231.2 211.65 258.53 211.65 278.75 172.77 269.51 144.64 250.59"/><polygon class="cls-8" points="224.77 179.84 217.12 192.41 207.28 184.21 224.77 179.84"/><polygon class="cls-11" points="119.85 283.12 196.9 340.5 211.65 278.75 119.85 283.12"/><path class="cls-12" d="M87.06,349.84c6.3,1.75,12.45,4.73,18.47,7.25l3.44,1.45c2.51-.28,5-.5,7.54-.62,8-.36,16.15.48,24.1.92,10.11.57,20.18,1.38,30.22,2.37L196.9,340.5l-77.05-57.38-53,29L75,347.56A82,82,0,0,1,87.06,349.84Z"/><polygon class="cls-12" points="211.65 278.75 280.08 297.56 269.54 325.32 263.1 354.06 232.63 345.99 196.9 340.5 211.65 278.75"/><path class="cls-11" d="M199.36,364.46l-2.46-24-29.32,20.41Q183.51,362.43,199.36,364.46Z"/><path class="cls-11" d="M220.49,367.28c14.25.18,28.51.19,42.75-.3l-5.76-22.75L196.9,340.5l1.23,23.81Q209.32,365.72,220.49,367.28Z"/><path class="cls-11" d="M281.12,366.08c5.15-2.53,10.31-5,15.61-7.28l-16.65-61.24-22.6,46.67,2.19,22.86C266.83,366.89,274,366.57,281.12,366.08Z"/><path class="cls-13" d="M63.25,346.63A148.45,148.45,0,0,1,78.34,348l-11.5-35.94L54.29,346.62C57.26,346.49,60.25,346.48,63.25,346.63Z"/><polygon class="cls-5" points="144.64 250.59 119.85 283.12 211.65 278.75 144.64 250.59"/><circle class="cls-14" cx="181.01" cy="150.67" r="6.61"/><circle class="cls-14" cx="234.41" cy="138.11" r="6.61"/></g></svg>