<svg id="illustration" xmlns="http://www.w3.org/2000/svg" viewBox="0 0 350 350"><defs><style>.cls-1{fill:none;}.cls-2{fill:#ececeb;}.cls-3{clip-path:url(#clip-path);}.cls-4{fill:#856400;}.cls-5{fill:#c3987b;}.cls-6{fill:#dfbda5;}.cls-7{fill:#8b6651;}.cls-8{fill:#474747;}.cls-9{fill:#2b2b2b;}.cls-10{fill:#6f7173;}.cls-11{fill:#4f5253;}.cls-12{fill:#e8cab6;}.cls-13{fill:#fff;}</style><clipPath id="clip-path"><circle class="cls-1" cx="175" cy="175" r="175"/></clipPath></defs><circle class="cls-2" cx="175" cy="175" r="175"/><g class="cls-3"><polygon id="_118316784" data-name=" 118316784" class="cls-4" points="265.28 359.02 213.81 312.83 203.35 331.15 195.07 355.19 235.81 362.82 265.28 359.02"/><polygon id="_118315968" data-name=" 118315968" class="cls-5" points="102.91 136.49 49.91 156.57 76.65 270.35 127.74 303.82 125.56 246.49 105.54 152.22 105.07 151.05 102.91 136.49"/><polygon id="_118311480" data-name=" 118311480" class="cls-5" points="138.73 270.15 76.65 270.35 79.84 278.54 110.2 356.83 125.91 362.13 127.74 303.82 138.73 270.15"/><polygon id="_118312344" data-name=" 118312344" class="cls-6" points="166.44 134.57 222.93 126.68 238.13 151.17 248.66 190.74 280.56 273.21 127.74 303.82 105.07 151.05 104.95 150.29 166.44 134.57"/><polygon id="_118317384" data-name=" 118317384" class="cls-5" points="202.74 202.95 210.67 173.97 227.78 156.76 196.52 164.45 188.41 167.08 177.17 169.71 164.76 171.51 133.25 178.32 155.88 183.25 186.02 207.23 202.74 202.95"/><polygon id="_118317912" data-name=" 118317912" class="cls-7" points="195.2 354.89 229.44 283.46 127.74 303.82 109.8 292.05 125.91 362.13 160.35 373.73 195.2 354.89"/><polygon id="_118319928" data-name=" 118319928" class="cls-7" points="75.33 264.75 76.65 270.35 102.46 245.73 79.28 239.03 75.33 264.75"/><polygon id="_118319208" data-name=" 118319208" class="cls-8" points="250.01 22.71 248.66 191.99 222.93 126.68 228.75 89.56 250.01 22.71"/><polygon id="_118318392" data-name=" 118318392" class="cls-8" points="89.09 218.12 76.65 270.35 27.48 143.66 55.65 172.08 89.09 218.12"/><polygon id="_118317552" data-name=" 118317552" class="cls-9" points="89.09 218.12 27.48 143.66 42.39 142.36 77.04 146.31 105.07 151.05 89.09 218.12"/><polygon id="_118316712" data-name=" 118316712" class="cls-8" points="27.48 143.66 84.3 77.22 97.84 107.02 105.07 151.05 27.48 143.66"/><polygon id="_118315824" data-name=" 118315824" class="cls-10" points="222.93 126.68 155.73 140.57 198.16 80.97 250.01 22.71 222.93 126.68"/><polygon id="_118314720" data-name=" 118314720" class="cls-11" points="155.73 140.57 105.07 151.05 84.3 77.22 250.01 22.71 155.73 140.57"/><polygon id="_118312560" data-name=" 118312560" class="cls-6" points="95.77 198.64 62.81 204.15 73.57 249.55 102.46 245.73 95.77 198.64"/><polygon id="_118310976" data-name=" 118310976" class="cls-7" points="76.42 210.47 91.06 209.2 92.57 223.62 76.42 210.47"/><polygon id="_118315176" data-name=" 118315176" class="cls-12" points="188.41 167.08 204.88 204.61 186.02 207.23 177.17 169.71 188.41 167.08"/><polygon id="_118319232" data-name=" 118319232" class="cls-7" points="198.2 217.28 204.88 204.61 186.02 207.23 198.2 217.28"/><polygon id="_118319112" data-name=" 118319112" class="cls-9" points="228.52 156.57 208 148.68 196.52 164.45 228.52 156.57"/><polygon id="_118318992" data-name=" 118318992" class="cls-9" points="164.76 171.51 144.72 163.13 128.94 182.02 164.76 171.51"/><polygon id="_118318824" data-name=" 118318824" class="cls-7" points="221.84 230.44 139.44 227.56 165.24 273.69 209.16 271.56 221.84 230.44"/><polygon id="_118318704" data-name=" 118318704" class="cls-13" points="217.78 232.57 153.79 233.06 167.64 267.73 206.54 266.76 217.78 232.57"/><polygon id="_118311240" data-name=" 118311240" class="cls-4" points="56.33 379.39 110.2 356.83 97.2 323.31 66.64 341.1 56.33 379.39"/></g><circle class="cls-9" cx="156.34" cy="193.81" r="8.82"/><circle class="cls-9" cx="213.52" cy="183.82" r="8.82"/></svg>