<svg id="illustration" xmlns="http://www.w3.org/2000/svg" viewBox="0 0 350 350"><defs><style>.cls-1{fill:none;}.cls-2{fill:#ececeb;}.cls-3{clip-path:url(#clip-path);}.cls-4{fill:#dfbda5;}.cls-10,.cls-11,.cls-13,.cls-14,.cls-15,.cls-16,.cls-17,.cls-18,.cls-4,.cls-5,.cls-6,.cls-7,.cls-8,.cls-9{fill-rule:evenodd;}.cls-6{fill:#4f5253;}.cls-7{fill:#474747;}.cls-12,.cls-8{fill:#2b2b2b;}.cls-9{fill:#856400;}.cls-10{fill:#c3987b;}.cls-11{fill:#8b6651;}.cls-13{fill:#8f8f8f;}.cls-14{fill:#737373;}.cls-15{fill:#e8cab6;}.cls-16{fill:#755800;}.cls-17{fill:#fff;}.cls-18{fill:#9e7700;}</style><clipPath id="clip-path"><circle class="cls-1" cx="175" cy="175" r="175"/></clipPath></defs><circle class="cls-2" cx="175" cy="175" r="175"/><g class="cls-3"><polygon class="cls-4" points="217.8 308.2 282.88 365.79 277.46 375.07 262.83 382.64 238.41 372.91 225.4 340.89 217.8 308.2"/><polygon class="cls-4" points="118.97 323.85 61.34 370.82 68.5 381.74 81.99 387.84 123.16 368.71 124.31 342.48 118.97 323.85"/><polygon class="cls-5" points="319.4 185.36 317.92 212.66 279.73 210.94 288.17 167.02 319.4 185.36"/><polygon class="cls-6" points="307.15 126.76 335.85 174.77 279.73 210.94 286.28 138.02 307.15 126.76"/><polygon class="cls-7" points="335.85 174.77 291.39 175.13 268.83 188.52 279.73 210.94 335.85 174.77"/><polygon class="cls-7" points="49.22 133.9 25.73 144.2 9.02 166.62 66.48 253.41 136.46 257.01 133.92 166.21 49.22 133.9"/><polygon class="cls-5" points="66.48 253.41 137.87 268.85 144.72 228.97 66.48 253.41"/><polygon class="cls-8" points="86.04 232.63 66.48 253.41 133.56 232.46 134.55 188.55 118.35 203.73 86.04 232.63"/><polygon class="cls-9" points="285.76 192.41 297.83 235.72 268.42 245.64 273.42 230.28 281.2 227.56 278.1 215.92 275.94 206.96 285.76 192.41"/><polygon class="cls-4" points="129.02 194.18 137.93 245.47 143.91 319.84 188.33 314.13 201.78 273.79 253.94 290.09 307.15 126.76 180.99 157.24 129.02 194.18"/><polygon class="cls-10" points="183.44 193.51 166.72 262.41 201.78 273.79 192.94 291.79 188.77 312.8 165.93 320 143.91 319.84 133.34 230.61 136.38 217.9 129.02 194.18 170.39 160.09 183.44 193.51"/><polygon class="cls-10" points="265.35 164.99 260.05 169.06 249.15 202.65 273.42 181.55 283 174.48 265.35 164.99"/><polygon class="cls-10" points="248.23 165.39 240.9 156.43 214.86 155.74 230.71 185.36 232.75 210.22 248.23 165.39"/><polygon class="cls-11" points="303.72 137.29 182.21 199.62 160.56 198.27 168.59 178.91 240.9 156.43 307.15 126.76 303.72 137.29"/><polygon class="cls-11" points="158.98 217.15 133.34 230.61 129.02 194.18 153.3 169.45 175.78 189.29 158.98 217.15"/><circle class="cls-12" cx="227.59" cy="174.72" r="6.89"/><circle class="cls-12" cx="268.84" cy="188.5" r="6.89"/><polygon class="cls-13" points="9.02 166.62 20.03 136.46 49.22 133.9 64.85 151.13 9.02 166.62"/><polygon class="cls-7" points="49.22 133.9 9.02 166.62 86.04 232.63 155.73 170.28 49.22 133.9"/><polygon class="cls-8" points="121.72 114.25 32.66 96.52 80.34 204.11 129.02 194.18 140.13 189.33 184.25 182.91 121.72 114.25"/><polygon class="cls-14" points="106.31 130.07 32.66 96.52 119.14 111.41 117.36 120.52 106.31 130.07"/><polygon class="cls-6" points="246.46 73.55 165.5 43.95 106.31 130.07 178.48 104.69 246.46 73.55"/><polygon class="cls-7" points="327.7 115.68 183.44 193.51 84.41 138.9 199.52 123.54 327.7 115.68"/><polygon class="cls-13" points="327.7 115.68 282.46 59.03 84.41 138.9 327.7 115.68"/><polygon class="cls-8" points="271.05 153.17 282.87 173.54 265.35 164.99 271.05 153.17"/><polygon class="cls-15" points="248.23 165.39 260.05 169.06 245.38 214.29 232.75 210.22 248.23 165.39"/><polygon class="cls-11" points="232.75 210.22 236.82 220 245.38 214.29 232.75 210.22"/><polygon class="cls-9" points="190.96 216.11 235.68 223.17 260.77 241.18 220.3 267.87 190.96 216.11"/><polygon class="cls-16" points="202.37 223.04 250.67 240.47 229.56 254.73 218.26 250.75 202.37 223.04"/><polygon class="cls-17" points="210.31 236.9 240.11 247.6 250.67 240.47 202.37 223.04 210.31 236.9"/><polygon class="cls-9" points="169.63 185.9 158.98 217.15 118.35 203.73 129.02 194.18 151.24 200.85 155.2 188.84 169.63 185.9"/><polygon class="cls-11" points="201.78 273.79 155.32 258.71 188.33 314.13 201.78 273.79"/><polygon class="cls-6" points="49.22 133.9 9.02 166.62 61.44 161.48 49.22 133.9"/><polygon class="cls-5" points="122.23 159.76 80.34 204.11 129.02 194.18 169.63 185.9 122.23 159.76"/><polygon class="cls-4" points="118.97 323.85 217.8 308.2 186.92 358.15 118.97 323.85"/><polygon class="cls-18" points="118.97 323.85 126.08 399.93 168.32 370.41 186.51 350.87 118.97 323.85"/><polygon class="cls-18" points="186.51 350.87 217.8 308.2 238.41 372.91 208.74 365.16 186.51 350.87"/></g></svg>