<svg id="illustration" xmlns="http://www.w3.org/2000/svg" viewBox="0 0 350 350"><defs><style>.cls-1{fill:none;}.cls-2{fill:#ececeb;}.cls-3{clip-path:url(#clip-path);}.cls-4{fill:#50a9aa;}.cls-5{fill:#72cbcc;}.cls-6{fill:#c3987b;}.cls-7{fill:#8b6651;}.cls-8{fill:#474747;}.cls-9{fill:#dfbda5;}.cls-10{fill:#2b2b2b;}.cls-11{fill:#6f7173;}.cls-12{fill:#e8cab6;}.cls-13{fill:#fff;}.cls-14{fill:#369496;}.cls-15{fill:#cececd;}</style><clipPath id="clip-path"><circle class="cls-1" cx="175" cy="175" r="175"/></clipPath></defs><circle class="cls-2" cx="175" cy="175" r="175"/><g class="cls-3"><path class="cls-4" d="M114,364.82V347l-5.64-10L91.91,361.82Q103,363.2,114,364.82Z"/><path class="cls-5" d="M267,362.85q15.66-2.09,31.3-4.07l-58.7-34.06-1.18,8.77L247,365.32Q257,364.15,267,362.85Z"/><polygon id="_282646344" data-name=" 282646344" class="cls-6" points="147.16 330.76 140.41 319.15 82.61 219.66 106.86 123.89 118.27 153.9 149.97 293.33 163.26 323.69 167.59 341.46 147.16 330.76"/><polygon id="_282646272" data-name=" 282646272" class="cls-7" points="206.59 334.49 212.17 313.56 224.8 281.37 219.6 278.64 149.05 287.09 144.51 290.9 167.59 341.46 206.59 334.49"/><polygon id="_282646200" data-name=" 282646200" class="cls-8" points="256.51 205.71 273.46 108.08 266.73 107.39 247.92 114.59 245.83 121.1 256.51 205.71"/><polygon id="_282646128" data-name=" 282646128" class="cls-9" points="247.92 114.59 267.43 276.37 144.37 290.79 106.76 123.89 247.92 114.59"/><polygon id="_282646056" data-name=" 282646056" class="cls-7" points="105.03 258.25 93.76 238.85 119.41 233.72 105.03 258.25"/><polygon id="_282645984" data-name=" 282645984" class="cls-10" points="192.66 155.74 273.46 108.08 222.38 59.51 215.88 58.11 190.81 146.9 130.67 73.22 122.78 71.83 80.29 114.36 83 117.15 118.6 131.54 122.68 129.97 192.66 155.74"/><polygon id="_282645912" data-name=" 282645912" class="cls-11" points="171.07 24.18 122.78 71.83 192.66 155.74 222.38 59.51 171.07 24.18"/><path id="_282645840" data-name=" 282645840" class="cls-10" d="M53.82,185l26.47-70.66,7.89,8.14s21.71,63.8,22.06,64.5.47,8,.47,8L93.76,238.85,53.82,185Z"/><polygon id="_282645768" data-name=" 282645768" class="cls-8" points="110.7 195.02 122.68 129.97 80.29 114.36 110.7 195.02"/><polygon id="_282645696" data-name=" 282645696" class="cls-9" points="119.41 233.72 93.76 238.85 78.78 199.55 110.7 195.02 119.41 233.72"/><polygon id="_282645624" data-name=" 282645624" class="cls-7" points="108.96 221.98 104.44 203.04 88.65 205.71 108.96 221.98"/><polygon id="_282645552" data-name=" 282645552" class="cls-6" points="215.42 215.94 233.76 179.21 250.99 161.98 206.83 168.99 200.79 178.75 186.86 170.15 169.68 168.52 130.67 173.17 162.95 182 193.13 216.17 215.42 215.94"/><polygon id="_282645480" data-name=" 282645480" class="cls-7" points="206.83 227.33 215.42 215.94 193.13 216.17 206.83 227.33"/><polygon id="_282645408" data-name=" 282645408" class="cls-12" points="206.83 168.99 215.42 215.94 193.13 216.17 186.86 170.15 206.83 168.99"/><polygon id="_282645336" data-name=" 282645336" class="cls-10" points="215.46 167.62 239.33 149.46 250.99 161.98 215.46 167.62"/><polygon id="_282645264" data-name=" 282645264" class="cls-10" points="170.35 168.59 138.1 156.43 130.67 173.17 170.35 168.59"/><polygon id="_282645048" data-name=" 282645048" class="cls-7" points="231.67 237.32 158.3 241.51 168.29 250.57 225.63 245.69 231.67 237.32"/><polygon id="_282644976" data-name=" 282644976" class="cls-13" points="223.31 240.58 169.22 244.53 172.93 247.09 221.92 242.9 223.31 240.58"/><path class="cls-14" d="M251.23,364.82l-11.67-40.1L217,328.21l-2.64,6.61,1.14,33.66C227.45,367.52,239.35,366.25,251.23,364.82Z"/><path class="cls-5" d="M140.68,368.83,137,341.65l-4.28-8.33L108.38,337l.4,27C119.4,365.56,130,367.18,140.68,368.83Z"/><path class="cls-5" d="M220.55,368.06,217,328.21l-19.73,24.41-4.68,17.28C202,369.51,211.25,368.88,220.55,368.06Z"/><path class="cls-14" d="M143.74,369.3c6.12.46,12.26.74,18.39.9l-7.54-12.94-21.83-23.94,3.89,34.89Z"/><polygon id="_282644616" data-name=" 282644616" class="cls-2" points="175.02 327.98 197.31 352.62 217.04 328.21 212.17 313.56 175.02 327.98"/><polygon id="_282644544" data-name=" 282644544" class="cls-2" points="132.76 333.32 140.41 319.15 175.02 327.98 154.59 357.26 132.76 333.32"/><path class="cls-15" d="M192.63,369.9l4.68-17.28L175,328l-20.43,29.28,7.54,12.94C172.3,370.45,182.47,370.33,192.63,369.9Z"/><polygon id="_282644400" data-name=" 282644400" class="cls-10" points="181.63 362.61 190.37 344.94 175.02 327.98 160.57 348.69 172.7 363.19 177.37 364.7 181.63 362.61"/><circle class="cls-10" cx="163.7" cy="190.63" r="8.62"/><circle class="cls-10" cx="235.31" cy="186.28" r="8.62"/></g></svg>