<svg id="illustration" xmlns="http://www.w3.org/2000/svg" viewBox="0 0 350 350"><defs><style>.cls-1{fill:none;}.cls-2{fill:#ececeb;}.cls-3{clip-path:url(#clip-path);}.cls-4{fill:#8f8f8f;}.cls-10,.cls-11,.cls-12,.cls-14,.cls-15,.cls-16,.cls-4,.cls-5,.cls-6,.cls-7,.cls-8,.cls-9{fill-rule:evenodd;}.cls-5{fill:#dfbda5;}.cls-6{fill:#c3987b;}.cls-7{fill:#8b6651;}.cls-13,.cls-8{fill:#2b2b2b;}.cls-9{fill:#e8cab6;}.cls-10{fill:#27788c;}.cls-11{fill:#3aa0ba;}.cls-12{fill:#318fa6;}.cls-14{fill:#474747;}.cls-15{fill:#6f7173;}.cls-16{fill:#72cbcc;}</style><clipPath id="clip-path"><circle class="cls-1" cx="175" cy="175" r="175"/></clipPath></defs><circle class="cls-2" cx="175" cy="175" r="175"/><g class="cls-3"><path class="cls-4" d="M253.46,369.6l13.8,0,4,0L232.6,313.42l15.75,47.27Z"/><polygon class="cls-5" points="266.81 92.34 198.23 109.39 136.6 131.82 141.61 160.21 157.86 193.32 150.8 192.82 145.71 201.29 137.85 186.56 131.28 180.03 121.08 185.05 110.02 197.49 113.25 204.96 122.37 215.55 130.52 227.48 163.17 299.99 220.69 311.11 220.3 277.83 225.43 255.58 250.15 246.41 286.93 235.84 283.13 167.12 266.81 92.34"/><polygon class="cls-6" points="193.16 179.65 203.29 155.71 230.37 154.97 246.31 195.22 234.37 140.47 206.46 142 189.74 154.97 182.77 167.21 193.16 179.65"/><polygon class="cls-6" points="276.22 135.45 258.08 148.52 256.93 172.77 240.45 135.2 276.22 135.45"/><polygon class="cls-6" points="186.71 190.66 243.79 188.86 243.17 180.81 186.71 190.66"/><polygon class="cls-6" points="283.28 169.7 260.01 185.34 257.93 176.84 283.28 169.7"/><polygon class="cls-6" points="154.9 126.27 179.5 147.76 186.71 190.66 191.65 255.2 220.69 311.11 194.14 308.69 163.17 299.99 130.52 227.48 148.37 216.85 145.71 201.29 157.86 193.32 136.6 131.82 154.9 126.27"/><polygon class="cls-7" points="130.52 227.48 148.37 216.85 143.06 255.33 130.52 227.48"/><polygon class="cls-7" points="286.93 235.84 174.94 257.77 204.13 307.91 210.93 312.31 220.69 311.11 225.43 255.58 286.93 235.84"/><polygon class="cls-8" points="189.72 132.35 208.09 142.95 233.44 136.24 189.72 132.35"/><polygon class="cls-8" points="243.13 125.8 256.55 110.89 267.73 113.13 243.13 125.8"/><polygon class="cls-9" points="233.44 136.24 246.31 195.22 261.88 192.94 247.46 134.16 233.44 136.24"/><polygon class="cls-7" points="246.31 195.22 254.66 203.57 261.88 192.94 246.31 195.22"/><polygon class="cls-10" points="202.35 213.83 236.78 213.56 254 220.77 232.01 221.69 218.88 220.49 215.26 219.99 210.96 217.3 202.35 213.83"/><polygon class="cls-11" points="210.62 217.16 219.07 226.53 254 220.77 218.88 220.49 210.62 217.16"/><polygon class="cls-7" points="121.41 201.67 129.38 193.7 137.74 206.23 121.41 201.67"/><polygon class="cls-12" points="233.44 136.24 179.5 147.76 186.71 190.66 243.17 180.81 241.09 171.28 193.16 179.65 189.74 154.97 235.29 144.71 233.44 136.24"/><polygon class="cls-12" points="297.56 120.43 247.46 134.16 249.46 142.32 290.35 131.82 294.9 156.11 255.93 168.7 257.93 176.84 305.91 163.33 297.56 120.43"/><circle class="cls-13" cx="210.96" cy="162.61" r="6.01"/><circle class="cls-13" cx="267.98" cy="150.59" r="6.01"/><polygon class="cls-14" points="266.81 92.34 202.66 49.06 204.82 81.56 213.81 108.41 266.81 92.34"/><polygon class="cls-15" points="202.66 49.06 98.64 84.74 91.04 102.88 91.42 118.15 113.48 127.24 136.6 131.82 154.9 126.27 213.81 108.41 202.66 49.06"/><polygon class="cls-14" points="91.42 118.15 87.01 129.23 88.14 137.82 80.03 186.49 116.17 180.75 149.15 168.12 136.6 131.82 91.42 118.15"/><polygon class="cls-8" points="80.03 186.49 149.15 168.12 157.86 193.32 145.71 201.29 131.28 180.03 110.02 197.49 122.37 215.56 80.03 186.49"/><polygon class="cls-8" points="88.14 137.85 53.84 134.85 71.11 112.17 98.64 84.74 91.42 118.15 88.14 137.85"/><polygon class="cls-15" points="98.64 84.74 55.74 62.34 25.37 165.23 53.84 134.85 98.64 84.74"/><polygon class="cls-14" points="163.17 299.99 232.6 313.42 225.59 330.49 210.33 350.19 172.55 331.46 149.2 308.44 163.17 299.99"/><path class="cls-16" d="M143.14,369.6c37.34.06,74.69.13,112,0L232.6,313.42l-22.27,36.77L149.2,308.44l-23.11,11.93,9.21,32.47Z"/><path class="cls-4" d="M101.89,369.56q21.36,0,42.72,0l-18.52-49.23L95.58,369.69C97.69,369.61,99.79,369.56,101.89,369.56Z"/></g></svg>