<svg id="illustration" xmlns="http://www.w3.org/2000/svg" viewBox="0 0 350 350"><defs><style>.cls-1{fill:none;}.cls-2{fill:#ececeb;}.cls-3{clip-path:url(#clip-path);}.cls-4{fill:#8d7c2f;}.cls-5{fill:#f2bd68;}.cls-6{fill:#efd3c2;}.cls-7{fill:#d0af96;}.cls-8{fill:#ac923c;}.cls-9{fill:#a9846c;}.cls-10{fill:#ccad14;}.cls-11{fill:#f7e6dc;}.cls-12{fill:#755800;}.cls-13{fill:#fff;}.cls-14{fill:#474747;}.cls-15{fill:#e5c828;}.cls-16{fill:#4f5253;}.cls-17{fill:#2b2b2b;}</style><clipPath id="clip-path"><circle class="cls-1" cx="175" cy="175" r="175"/></clipPath></defs><circle class="cls-2" cx="175" cy="175" r="175"/><g class="cls-3"><polygon id="_248382840" data-name=" 248382840" class="cls-4" points="221.91 332.4 288.84 81.97 262.87 74.79 209.86 98.18 221.91 332.4"/><polygon id="_248382912" data-name=" 248382912" class="cls-5" points="220.82 308.29 164.33 314.62 153.43 323.44 167.73 366.49 260.56 359.12 257.19 331.33 220.82 308.29"/><polygon id="_248382768" data-name=" 248382768" class="cls-6" points="260.94 78.52 284.88 257.19 169.69 270.53 145.12 96.94 260.94 78.52"/><path id="_248382696" data-name=" 248382696" class="cls-7" d="M260.94,78.52l5.43,40.5-82.3,27.47s-12.56-39.24-11.29-41.05,2-6.39,4.36-13.59l83.8-13.33Z"/><polygon id="_248382624" data-name=" 248382624" class="cls-4" points="122.33 163.12 101.58 173.31 112.73 352.35 136.9 357.18 164.33 314.62 122.33 163.12"/><polygon id="_248382552" data-name=" 248382552" class="cls-8" points="118.21 153.99 76.98 169.46 116.6 363.95 118.21 153.99"/><polygon id="_248382480" data-name=" 248382480" class="cls-7" points="164.33 314.62 108.2 163.94 145.12 96.94 173.94 272.39 213.69 292.02 220.66 309.27 219.53 327.64 164.33 314.62"/><polygon id="_248382408" data-name=" 248382408" class="cls-9" points="142.34 255.56 134.36 234.15 148.62 232.46 142.34 255.56"/><polygon id="_248382336" data-name=" 248382336" class="cls-9" points="137.06 241.4 130.6 224.06 151.18 215.69 137.06 241.4"/><polygon id="_248382264" data-name=" 248382264" class="cls-9" points="225.34 264.08 173.56 270.08 164.93 271.15 219.53 327.64 220.82 308.29 225.34 264.08"/><polygon id="_248382120" data-name=" 248382120" class="cls-10" points="107.03 97.06 91.49 102.83 80.97 136.89 76.98 169.46 111.82 186.87 135.56 178.7 141.03 175.14 137.71 110.38 107.03 97.06"/><polygon id="_248382048" data-name=" 248382048" class="cls-7" points="231.49 195.24 189.37 161.77 158.16 151.69 205.93 147.06 232.65 141.97 268.13 138.58 253.44 155.12 243.64 193.17 237.56 197.59 231.49 195.24"/><polygon id="_248381976" data-name=" 248381976" class="cls-11" points="232.65 141.97 243.64 193.17 231.49 195.24 210.83 143.18 232.65 141.97"/><polygon id="_248381904" data-name=" 248381904" class="cls-9" points="239.07 202.02 243.64 193.17 231.49 195.24 239.07 202.02"/><polygon id="_248381832" data-name=" 248381832" class="cls-9" points="262.68 221.1 230.45 212.66 190.71 215.86 222.41 251.75 262.68 221.1"/><polygon id="_248381760" data-name=" 248381760" class="cls-12" points="207.01 228.81 215.13 237.54 232.74 239.37 241.57 231.52 238.59 229.98 209.63 227.68 207.01 228.81"/><polygon id="_248381688" data-name=" 248381688" class="cls-13" points="251.02 223.09 198.24 219.37 207.01 228.81 241.57 231.52 251.02 223.09"/><polygon id="_248381616" data-name=" 248381616" class="cls-4" points="268.13 138.58 245.11 129.34 232.65 141.97 268.13 138.58"/><polygon id="_248381400" data-name=" 248381400" class="cls-6" points="141.03 175.14 108.91 186.25 130.84 225.16 151.18 215.69 141.03 175.14"/><polygon id="_248381328" data-name=" 248381328" class="cls-9" points="138.44 199.28 134.27 183.38 118.63 186.85 138.44 199.28"/><path id="_248378880" data-name=" 248378880" class="cls-14" d="M129.55,210l19.07,22.44L131.5,255.65,112.73,230.9,129.55,210Zm1.35,11.29L141,233.09l-9.76,10.76-10-10.1,9.66-12.44Z"/><polygon id="_248380152" data-name=" 248380152" class="cls-10" points="288.84 81.97 261.12 32.43 238.91 36.8 118.5 86.66 107.03 97.06 126.59 107.4 271.6 93.21 288.84 81.97"/><polygon id="_248379552" data-name=" 248379552" class="cls-8" points="261.12 32.43 126.69 40.66 107.03 97.06 261.12 32.43"/><polygon id="_248376048" data-name=" 248376048" class="cls-15" points="213.67 150.17 288.84 81.97 107.03 97.06 92.01 156.39 213.67 150.17"/><path class="cls-16" d="M160.18,376.52q13.14,1.8,26.26,3.81c24.18-3.41,48.41-6.43,72.75-8.19,5.21-.37,10.44-.66,15.67-.84l-14.54-38-39.5-25,33.89,45.51L181,358.75l-16.63-44.13-10.9,8.82-.9,2.32,10.62,47.53Z"/><path class="cls-17" d="M115.89,371q23,2.53,45.83,5.72l2.75-3-3.29-15-7.75-35.26L98.86,369.49Q107.38,370.08,115.89,371Z"/></g><circle class="cls-17" cx="199.65" cy="170.26" r="7.73"/><circle class="cls-17" cx="251.68" cy="161.72" r="7.73"/></svg>