<svg id="illustration" xmlns="http://www.w3.org/2000/svg" viewBox="0 0 350 350"><defs><style>.cls-1{fill:none;}.cls-2{fill:#ececeb;}.cls-3{clip-path:url(#clip-path);}.cls-18,.cls-4{fill:#e5c828;}.cls-10,.cls-11,.cls-12,.cls-13,.cls-14,.cls-15,.cls-17,.cls-4,.cls-5,.cls-6,.cls-7,.cls-8,.cls-9{fill-rule:evenodd;}.cls-5{fill:#bf8f00;}.cls-6{fill:#755800;}.cls-7{fill:#dfbda5;}.cls-8{fill:#c3987b;}.cls-9{fill:#8b6651;}.cls-10{fill:#856400;}.cls-11{fill:#e8cab6;}.cls-12{fill:#2b2b2b;}.cls-13{fill:#474747;}.cls-14{fill:#fff;}.cls-15,.cls-16{fill:#ccad14;}.cls-17{fill:#b58b00;}</style><clipPath id="clip-path"><circle class="cls-1" cx="175" cy="175" r="175"/></clipPath></defs><circle class="cls-2" cx="175" cy="175" r="175"/><g class="cls-3"><path class="cls-4" d="M280.08,362.51l.32-7.71-2.72-63.18-33.94-.44-16.75,23-13.45,32.21L215,362.59Q247.52,362.46,280.08,362.51Z"/><path class="cls-4" d="M165.76,362.86q24.6-.17,49.21-.27l-1.43-16.23-44.42-15.11-43.95-9.66L96.52,331.73l5.8,31.57Z"/><polygon class="cls-5" points="175.42 303.15 133.13 292.36 123.51 287.14 111.95 285.01 125.17 321.6 213.54 346.36 175.42 303.15"/><polygon class="cls-6" points="111.95 285.01 123.62 277.53 131.08 283.54 133.13 292.36 111.95 285.01"/><polygon class="cls-6" points="221.68 254.26 247.27 268.26 243.74 291.18 213.54 346.36 215.16 290.24 221.68 254.26"/><path class="cls-6" d="M105.16,363.28l-8.64-31.55L59.06,346.28,70.48,363.5Z"/><path class="cls-6" d="M297.07,362.57l3-7.22,19-64.17-41.43.44-.42,70.89Q287.16,362.53,297.07,362.57Z"/><path class="cls-5" d="M215.7,362.59l-2.16-16.23.7,16.24Z"/><polygon class="cls-7" points="115.71 125.43 205.35 115.99 232.93 102.56 263.05 241.56 221.68 254.26 216.02 272.21 218.77 291.27 172.32 304.7 133.13 292.36 74.7 201.27 60.55 179.5 115.71 125.43"/><polygon class="cls-8" points="125.96 124.35 168.39 269.8 221.68 254.26 216.79 272.89 218.77 291.27 213.53 346.36 172.32 304.7 133.13 292.36 93.71 230.91 117.17 213.31 97.2 184.94 74.7 201.27 60.55 179.5 103.62 137.28 115.71 125.43 125.96 124.35"/><polygon class="cls-8" points="211.32 194.91 185.34 157.89 152.36 147.2 190.11 135.59 199.79 147.33 211.32 194.91"/><polygon class="cls-8" points="213.91 143.96 220.59 131.96 237.81 125.07 221.9 176.94 213.91 143.96"/><polygon class="cls-9" points="117.17 213.31 93.71 230.91 105.62 249.47 117.17 213.31"/><polygon class="cls-9" points="204.73 167.71 161.8 203.63 144.12 186.59 136.56 186.32 133.1 181.16 152.36 179.14 204.73 167.71"/><polygon class="cls-9" points="219.02 165.02 248.55 174.64 247.29 168.84 241.53 158.51 219.02 165.02"/><polygon class="cls-10" points="103.62 137.28 156.36 215.79 131.68 233.94 97.2 184.94 74.7 201.27 60.55 179.5 83.28 151.96 103.62 137.28"/><polygon class="cls-11" points="213.91 143.96 199.79 147.33 211.32 194.91 225.43 191.49 213.91 143.96"/><polygon class="cls-12" points="147.28 159.9 76.52 176.96 74.7 201.27 97.2 184.94 152.36 179.14 151.72 168.42 147.28 159.9"/><polygon class="cls-12" points="213.91 143.96 199.79 147.33 199.06 153.35 202.78 159.67 216.86 156.13 218.39 150.98 213.91 143.96"/><path class="cls-13" d="M258,133.41,267,171.52,219,165,213.91,144Zm-53.24,34.3-47.29,30.66L147.28,159.9l52.51-12.57Z"/><polygon class="cls-9" points="103.38 209.38 95.87 198.49 87.28 204.55 103.38 209.38"/><polygon class="cls-10" points="152.36 147.2 178.49 129.42 190.11 135.59 152.36 147.2"/><polygon class="cls-10" points="220.59 131.96 235.11 115.99 246 121.8 220.59 131.96"/><polygon class="cls-9" points="247.81 199.1 168.33 218.33 198.45 233.57 232.93 225.59 247.81 199.1"/><polygon class="cls-14" points="238.66 206.48 182.84 219.93 199.53 229.23 229.39 222.24 238.66 206.48"/><polygon class="cls-9" points="225.43 191.49 219.36 201.54 211.32 194.91 225.43 191.49"/><polygon class="cls-10" points="115.71 125.43 133.73 104.38 167.97 76.07 205.35 60.83 208.4 89.04 205.35 115.99 115.71 125.43"/><polygon class="cls-5" points="205.35 60.83 268.13 36.15 232.93 102.56 205.35 115.99 205.35 60.83"/><polygon class="cls-15" points="167.97 76.07 133.13 56.48 77.26 80.81 41.31 103.65 60.55 179.5 103.62 137.28 115.71 125.43 167.97 76.07"/><polygon class="cls-4" points="133.13 56.48 76.15 47.77 55.17 76.52 41.31 103.65 133.13 56.48"/><polygon class="cls-16" points="22.08 93.49 53.4 71.02 76.16 47.77 56.92 35.68 30.06 26.35 22.08 93.49"/><polygon class="cls-17" points="76.15 47.77 22.08 93.49 41.31 103.65 76.15 47.77"/><polygon class="cls-6" points="136.56 186.32 99.7 188.5 97.2 184.94 133.19 181.29 136.56 186.32"/><polygon class="cls-18" points="73.26 25.63 30.07 26.35 76.16 47.77 73.61 25.63 73.26 25.63"/><polygon class="cls-9" points="221.68 254.26 152 274.58 218.77 291.27 221.68 254.26"/></g></svg>