<svg id="illustration" xmlns="http://www.w3.org/2000/svg" viewBox="0 0 350 350"><defs><style>.cls-1{fill:none;}.cls-2{fill:#ececeb;}.cls-3{clip-path:url(#clip-path);}.cls-4{fill:#734d60;}.cls-10,.cls-11,.cls-12,.cls-13,.cls-14,.cls-15,.cls-16,.cls-4,.cls-5,.cls-6,.cls-7,.cls-8,.cls-9{fill-rule:evenodd;}.cls-5{fill:#96637c;}.cls-6{fill:#b3889d;}.cls-7{fill:#594165;}.cls-8{fill:#9075a0;}.cls-9{fill:#dfbda5;}.cls-10{fill:#c3987b;}.cls-11{fill:#e8cab6;}.cls-12{fill:#8b6651;}.cls-13{fill:#474747;}.cls-14{fill:#858686;}.cls-15{fill:#6f7173;}.cls-16{fill:#d1a1b8;}</style><clipPath id="clip-path"><circle class="cls-1" cx="175" cy="175" r="175"/></clipPath></defs><circle class="cls-2" cx="175" cy="175" r="175"/><g class="cls-3"><path class="cls-4" d="M172.92,360.81c1.33.35,2.65.73,4,1.13,15.45,0,30.92-.93,46.38-1.13l.87-1.75L146.8,282.22l24.75,78.26Z"/><path class="cls-5" d="M41.23,332.33l18.14-50.4L27.5,303.86a185.84,185.84,0,0,1,12,28.38C40.07,332.27,40.66,332.29,41.23,332.33Z"/><path class="cls-6" d="M113,352.33l1.68.12c15.79,1.47,34.65,4.22,50.34,6.75,2.65.43,5.27.93,7.87,1.61,1.33.35,2.65.73,4,1.13H178L173,339,153.9,314.65l-7.1-32.43L71.36,255.11l-3,21-9,5.78L49.24,314.3,39,330.66l.51,1.58A181.6,181.6,0,0,1,113,352.33Z"/><path class="cls-7" d="M89.37,342.12a186.81,186.81,0,0,1,23.68,10.21l1.66.12c4.15.39,8.51.86,13,1.4l7.55-18.18L141,300.93l-81.64-19L85.7,336.45Z"/><polygon class="cls-8" points="71.36 255.11 59.37 281.93 84.7 327.33 104.87 302.11 132.44 328.6 141.01 300.93 146.8 282.22 105.66 290.76 71.36 255.11"/><polygon class="cls-9" points="229.31 301.28 146.85 278.67 104.87 302.11 91.77 269.89 71.36 255.11 85.98 235.42 85.19 219.84 93.57 198.47 82.6 193.67 81.73 156.63 104.21 153.76 116.89 187.06 133.65 184.82 135.42 89.78 171.53 79.99 252.83 120.37 284.19 118.7 257.06 227.77 229.31 301.28"/><polygon class="cls-10" points="263.46 171.09 224.71 181.4 195.77 221.35 195.17 166.51 175.66 137.74 208.9 153.19 232.35 156.38 246.62 154.46 263.46 171.09"/><polygon class="cls-4" points="244.33 140.54 263.46 171.09 232.35 156.38 244.33 140.54"/><polygon class="cls-4" points="208.9 153.19 175.66 137.74 195.17 166.51 208.9 153.19"/><polygon class="cls-11" points="232.35 156.38 211.01 226.21 195.77 221.35 208.9 153.19 232.35 156.38"/><polygon class="cls-12" points="211.01 226.21 200.57 234.24 195.77 221.35 211.01 226.21"/><polygon class="cls-12" points="209.13 257.52 156.46 231.45 155.31 236.78 204.81 260.3 209.13 257.52"/><polygon class="cls-12" points="94.44 163.94 105.88 185.12 91.03 177.78 94.44 163.94"/><polygon class="cls-12" points="91.26 197.46 106.31 203.64 85.19 219.84 91.26 197.46"/><polygon class="cls-12" points="229.31 301.28 132.45 265.05 112.22 253.59 104.87 302.11 146.8 282.22 229.31 301.28"/><polygon class="cls-10" points="171.53 79.99 175.66 137.74 132.45 265.05 116.17 258.62 104.87 302.11 71.36 255.11 85.19 219.84 91.26 197.46 106.31 203.64 116.89 187.06 133.65 184.82 135.42 89.78 171.53 79.99"/><polygon class="cls-13" points="308.43 116.21 284.19 118.7 252.06 123.92 261.7 86.43 283.33 56.38 308.43 116.21"/><polygon class="cls-14" points="283.33 56.38 142.93 40.4 154.41 65.87 172.55 83.21 252.06 123.92 283.33 56.38"/><polygon class="cls-15" points="172.55 83.21 138.6 91.61 122.89 82.29 113.67 68.09 142.93 40.4 172.55 83.21"/><polygon class="cls-13" points="138.6 91.61 136.1 188.06 115.78 189.54 103.46 155.89 83.13 158.08 82.29 180.42 48.98 132.29 113.67 68.09 138.6 91.61"/><polygon class="cls-12" points="106.31 203.64 85.19 219.84 91.26 197.46 106.31 203.64"/><path class="cls-16" d="M93.87,343.75l-34.5-61.82-21,46.94c.39,1.11.75,2.24,1.12,3.37A181.34,181.34,0,0,1,93.87,343.75Z"/><path class="cls-6" d="M149.71,356.82,173,339,146.8,282.22,124.73,353.5C132.88,354.44,141.43,355.6,149.71,356.82Z"/><path class="cls-5" d="M165.05,359.2c2.65.43,5.27.93,7.87,1.61,1.33.35,2.65.73,4,1.13H178L173,339l-23.31,17.79C155,357.6,160.18,358.41,165.05,359.2Z"/></g><circle cx="184.55" cy="171.59" r="6.28"/><circle cx="239.55" cy="187.46" r="6.28"/></svg>