<svg id="illustration" xmlns="http://www.w3.org/2000/svg" viewBox="0 0 350 350"><defs><style>.cls-1{fill:none;}.cls-2{fill:#ececeb;}.cls-3{clip-path:url(#clip-path);}.cls-4{fill:#1c7678;}.cls-10,.cls-11,.cls-12,.cls-13,.cls-14,.cls-4,.cls-5,.cls-6,.cls-7,.cls-8,.cls-9{fill-rule:evenodd;}.cls-5{fill:#3aa0ba;}.cls-6{fill:#dfbda5;}.cls-7{fill:#c3987b;}.cls-8{fill:#8b6651;}.cls-9{fill:#474747;}.cls-10,.cls-15{fill:#2b2b2b;}.cls-11{fill:#e8cab6;}.cls-12{fill:#369496;}.cls-13{fill:#50a9aa;}.cls-14{fill:#72cbcc;}</style><clipPath id="clip-path"><circle class="cls-1" cx="175" cy="175" r="175"/></clipPath></defs><circle class="cls-2" cx="175" cy="175" r="175"/><g class="cls-3"><path class="cls-4" d="M76.36,355.65c32.9-2.46,65.93-.91,98.88-.85,29.37.06,58.49,1.57,87.56,4.36l-3.74-12.79,12.05-2.75,7.05-14.68,11.38-3.14,7.72-14.29-21.9-20-25.2-44.17-23,11.14-24.83.36-85.67,9.64-28.59,13-34.45,3L47,324.71,32.48,361C47,358.17,61.81,356.73,76.36,355.65Z"/><polygon class="cls-5" points="291.7 49.33 237.66 56.27 207.89 51.19 167.06 45.9 131.13 31.9 119.26 60.27 88.85 88.64 71.42 112.11 27.67 147.97 47.63 138.28 60.13 141.56 123.24 136.98 140 132.83 160.79 120.53 208.05 103.47 245.21 74.61 291.7 49.33"/><polygon class="cls-6" points="245.21 74.61 275.01 210.64 211.6 232.15 202.33 258.85 217.5 269.26 218.27 283.7 179.83 300.27 143.37 303.35 123.16 287.88 116.67 268.49 123.71 195.07 106.28 172.08 127.55 155.56 156.42 180.7 169.32 168.74 121.49 129.43 131.87 116.45 245.21 74.61"/><polygon class="cls-7" points="181.56 129.06 200.74 132.99 223.47 172.45 207.89 119.42 181.56 129.06"/><polygon class="cls-7" points="223.47 116.45 245.34 112 229.4 142.59 223.47 116.45"/><polygon class="cls-8" points="190.09 184.69 210.86 204.71 250.91 193.59 255.54 176.16 227.54 186.54 190.09 184.69"/><polygon class="cls-7" points="160.79 120.53 194.17 236.97 211.6 232.15 202.33 258.85 188.7 291.46 116.67 268.49 121.01 223.21 117.99 205.94 116.64 192.86 100.98 169.87 126.27 150.04 156.42 180.7 162.69 168.3 144.93 147.2 132.49 121.57 160.79 120.53"/><polygon class="cls-8" points="176.74 239.94 202.33 258.85 211.6 232.15 176.74 239.94"/><polygon class="cls-8" points="123.71 195.07 132.24 204.34 138.52 202.88 141.5 215.72 121.01 223.21 117.99 205.94 123.71 195.07"/><polygon class="cls-8" points="247.44 84.8 162.14 125.23 140 132.83 135.23 121.47 243.49 69.73 245.21 74.61 247.44 84.8"/><polygon class="cls-8" points="176.74 239.94 188.98 245.5 147.81 264.42 143.76 225.47 176.74 239.94"/><polygon class="cls-9" points="129.46 127.39 144.93 147.2 169.32 168.74 156.42 180.7 127.55 155.56 106.28 172.08 123.71 195.07 121.01 223.21 60.13 141.56 97.75 121.64 129.46 127.39"/><polygon class="cls-9" points="245.34 112 230.51 104.21 223.47 116.45 245.34 112"/><polygon class="cls-9" points="207.89 119.42 189.72 113.86 181.56 129.06 207.89 119.42"/><polygon class="cls-10" points="127.55 155.56 114.08 140.95 70.93 156.04 60.13 141.56 92.45 124.45 121.49 129.43 127.55 155.56"/><polygon class="cls-10" points="106.28 172.08 83.25 172.57 121.01 223.21 123.71 195.07 106.28 172.08"/><polygon class="cls-9" points="235.33 168.74 223.47 172.45 210.49 183.94 190.09 184.69 210.11 198.03 250.91 186.54 260.18 165.77 245.72 174.3 235.33 168.74"/><polygon class="cls-9" points="237.56 205.08 227.17 235.12 259.81 226.22 237.56 205.08"/><polygon class="cls-11" points="223.47 116.45 235.33 168.74 223.47 172.45 207.89 119.42 223.47 116.45"/><polygon class="cls-12" points="137.43 125.35 176.74 239.94 150.04 252.55 121.49 129.43 128.57 120.58 137.43 125.35"/><polygon class="cls-13" points="27.67 147.97 121.49 129.43 137.43 125.35 160.79 120.53 149.67 86.78 88.85 88.64 27.67 147.97"/><polygon class="cls-14" points="149.67 86.78 207.89 51.19 291.7 49.33 160.79 120.53 149.67 86.78"/><polygon class="cls-13" points="207.89 51.19 131.13 31.9 149.67 86.78 207.89 51.19"/><polygon class="cls-12" points="131.13 31.9 88.85 88.64 149.67 86.78 131.13 31.9"/><polygon class="cls-8" points="132.06 175 124.45 168.74 116.67 174.3 133.25 180.17 132.06 175"/><polygon class="cls-4" points="166.73 229.19 157.46 224.36 151.89 235.49 162.65 239.94 166.73 229.19"/><polygon class="cls-14" points="116.67 268.49 53.62 284.44 76.38 309.48 101.83 329.68 123.44 318.82 143.37 303.35 116.67 268.49"/><polygon class="cls-14" points="202.33 258.85 218.27 283.7 238.28 288.88 253.87 287.4 257.33 274.9 250.16 247.35 202.33 258.85"/><path class="cls-13" d="M76.36,355.65c9.73-.73,19.47-1.1,29.22-1.27l-3.75-24.7L53.62,284.44,32.13,361.11C46.72,358.2,61.7,356.74,76.36,355.65Z"/><polygon class="cls-13" points="250.16 247.35 253.87 287.4 252.46 309.29 259.06 346.37 297.26 311.51 250.16 247.35"/><path class="cls-12" d="M260.15,358.91l-1.09-12.54-5.19-59-35.6-3.71-14.39,25.55L194,334.94l.29,20.11Q227.36,355.82,260.15,358.91Z"/><path class="cls-4" d="M175.24,354.8q10.63,0,21.24.3L194,334.94,170.81,317l-27.45-13.69-41.53,26.33,1.66,24.74C127.4,353.94,151.34,354.76,175.24,354.8Z"/><polygon class="cls-14" points="218.27 283.7 194.01 334.94 143.37 303.35 188.7 291.46 218.27 283.7"/></g><circle class="cls-15" cx="197.78" cy="138.3" r="6.4"/><circle class="cls-15" cx="239.82" cy="127.79" r="6.4"/></svg>