<svg id="illustration" xmlns="http://www.w3.org/2000/svg" viewBox="0 0 350 350"><defs><style>.cls-1{fill:none;}.cls-2{fill:#ececeb;}.cls-3{clip-path:url(#clip-path);}.cls-4{fill:#d0af96;}.cls-10,.cls-11,.cls-12,.cls-13,.cls-14,.cls-4,.cls-5,.cls-6,.cls-7,.cls-8,.cls-9{fill-rule:evenodd;}.cls-5{fill:#ccad14;}.cls-6{fill:#755800;}.cls-7{fill:#efd3c2;}.cls-8{fill:#a9846c;}.cls-9{fill:#856400;}.cls-10{fill:#f7e6dc;}.cls-11{fill:#b58b00;}.cls-12{fill:#fff;}.cls-13{fill:#9e7700;}.cls-14{fill:#f4d75d;}.cls-15{fill:#2b2b2b;}</style><clipPath id="clip-path"><circle class="cls-1" cx="175" cy="175" r="175"/></clipPath></defs><circle class="cls-2" cx="175" cy="175" r="175"/><g class="cls-3"><polygon class="cls-4" points="91.46 138.43 227.21 66.44 259.88 117.4 258.65 150.45 284.48 253.29 183.23 291.43 213.16 293.91 219.21 312.44 153.85 309.41 129.98 280.49 113.19 231.88 75.43 214.41 91.46 138.43"/><polygon class="cls-5" points="50.31 183.98 75.06 99.3 250.9 44.81 231.77 96.65 133.73 151.81 50.31 183.98"/><path class="cls-6" d="M118.24,157.78c-1.2-3.11,10.16,61,10.16,61l-10,5.23-9.07-16.35L90.18,218.23l-7.92,4.45L50.31,184l42-39.71Z"/><polygon class="cls-7" points="108.86 206.79 129.43 243.84 109.06 255.15 82.26 222.68 108.86 206.79"/><polygon class="cls-8" points="129.43 243.84 129.98 280.49 109.06 255.15 129.43 243.84"/><polygon class="cls-8" points="226.14 275.27 219.21 312.44 185.97 316.12 164 298.61 226.14 275.27"/><polygon class="cls-7" points="183.23 291.43 284.48 253.29 247.92 107.76 133.73 151.81 183.23 291.43"/><polygon class="cls-9" points="257 104.26 271.12 134.93 258.65 150.45 247.92 107.76 247.68 97.27 257 104.26"/><polygon class="cls-10" points="201.24 163.56 217.71 157.76 232.6 204.75 223.1 208.29 201.24 163.56"/><polygon class="cls-8" points="227.79 211.67 232.6 204.75 223.1 208.29 227.79 211.67"/><polygon class="cls-6" points="154.26 174.65 188.03 151.3 201.24 163.56 154.26 174.65"/><polygon class="cls-6" points="222.53 141.12 250.98 144.76 217.71 157.76 222.53 141.12"/><polygon class="cls-4" points="154.26 174.65 188.03 176.79 223.1 208.29 201.24 163.56 154.26 174.65"/><polygon class="cls-4" points="235.56 159.84 232.6 204.75 217.71 157.76 250.98 144.75 235.56 159.84"/><polygon class="cls-8" points="195.57 230.78 257.21 210.38 247.54 239.91 228.02 246.66 195.57 230.78"/><polygon class="cls-9" points="75.06 99.3 50.31 183.98 98.44 165.42 133.73 151.81 75.06 99.3"/><polygon class="cls-11" points="133.73 151.81 265.45 100.99 250.9 44.81 133.73 151.81"/><polygon class="cls-12" points="205.43 231.07 251.46 215.98 245.38 236.65 228.77 242.4 205.43 231.07"/><path class="cls-6" d="M136.13,363.52l8.11-65.83-38.6,44.54L87,363.69Q111.58,363.63,136.13,363.52Z"/><path class="cls-5" d="M248.82,362.92l-.12-4.84-21-56.52-13.94,7.54-13.89-8.83-23.42,7.91-32.2-10.49,16.7,65.71Z"/><path class="cls-13" d="M203.69,363.17,199,331.53l-15.32-25.8-7.23,2.45-32.2-10.49-17.57,65.87Q165.19,363.4,203.69,363.17Z"/><path class="cls-13" d="M270.31,362.81l-42.62-61.25L243.25,363Z"/><polygon class="cls-14" points="173.16 330.43 144.24 297.69 199.86 300.27 173.16 330.43"/><polygon class="cls-14" points="219.81 329.12 227.69 301.56 207.11 300.61 199.86 300.27 219.81 329.12"/><polygon class="cls-6" points="185.91 316.04 198.99 331.53 211.38 316.92 199.86 300.27 185.91 316.04"/><polygon class="cls-6" points="247.57 330.13 238.62 344.67 227.69 301.56 247.57 330.13"/><polygon class="cls-8" points="94.31 223.14 103.78 219.32 115.39 238.22 94.31 223.14"/></g><circle class="cls-15" cx="188.03" cy="182.32" r="7.32"/><circle class="cls-15" cx="239.86" cy="165.82" r="7.32"/></svg>