<svg id="illustration" xmlns="http://www.w3.org/2000/svg" viewBox="0 0 350 350"><defs><style>.cls-1{fill:none;}.cls-2{fill:#ececeb;}.cls-3{clip-path:url(#clip-path);}.cls-4{fill:#efd3c2;}.cls-10,.cls-11,.cls-12,.cls-4,.cls-5,.cls-6,.cls-7,.cls-8,.cls-9{fill-rule:evenodd;}.cls-5{fill:#165e60;}.cls-6{fill:#369496;}.cls-13,.cls-7{fill:#d0af96;}.cls-8{fill:#a9846c;}.cls-9{fill:#72cbcc;}.cls-10{fill:#50a9aa;}.cls-11{fill:#73cfe5;}.cls-12{fill:#f7e6dc;}.cls-14{fill:#2b2b2b;}.cls-15{fill:#4f5253;}</style><clipPath id="clip-path"><circle class="cls-1" cx="175" cy="175" r="175"/></clipPath></defs><circle class="cls-2" cx="175" cy="175" r="175"/><g class="cls-3"><polygon class="cls-4" points="221.13 323.28 341 358.61 274.96 378.17 231.65 372.83 221.13 323.28"/><polygon class="cls-5" points="66.31 145.02 72.74 235.91 178 345.59 158.5 270.61 138.58 141.81 66.31 145.02"/><path class="cls-6" d="M65.65,145.09l-19.57,2.18,26.66,88.64,12.52-45s1.19-46.83,1.33-43.71C86.65,148.68,76.55,147.15,65.65,145.09Z"/><polygon class="cls-6" points="72.74 235.91 43.83 291.81 93.81 388.31 115.78 358.61 176.47 345.91 129.22 268.72 72.74 235.91"/><polygon class="cls-5" points="43.83 291.81 93.81 388.31 128.62 382.38 160.62 349.23 164.14 342.4 43.83 291.81"/><polygon class="cls-5" points="279.25 114.79 264.38 137.38 211.94 102.51 246.63 78.1 279.25 114.79"/><polygon class="cls-4" points="264.38 137.38 281.07 261.69 229.45 275.47 212.66 290.37 196.68 331.49 164.14 342.4 135.57 209.98 133.51 161.62 230.37 102.75 264.38 137.38"/><polygon class="cls-7" points="149.26 152.05 230.37 102.75 242.46 115.07 149.26 152.05 149.26 152.05"/><polygon class="cls-7" points="212.66 290.37 196.68 331.49 164.14 342.4 118.82 246.76 129.26 211.88 135.57 209.98 133.51 161.62 149.26 152.05 180.72 288.49 212.66 290.37"/><polygon class="cls-8" points="196.68 331.49 163.2 293.17 229.45 275.47 196.68 331.49"/><polygon class="cls-4" points="135.57 239.85 118.82 246.76 99.6 210.94 125.94 197.13 135.57 239.85"/><polygon class="cls-9" points="85.27 190.95 267.06 80.46 207.96 8.51 87.83 134.42 85.27 190.95"/><polygon class="cls-10" points="207.96 8.51 46.08 147.27 85.27 190.95 207.96 8.51"/><polygon class="cls-4" points="221.13 323.28 115.78 358.61 114.32 408.78 136.27 437.36 196.92 381.67 221.13 323.28"/><polygon class="cls-11" points="286.65 390.1 221.13 323.28 196.68 331.49 136.27 437.36 286.65 390.1"/><polygon class="cls-7" points="174.52 168.19 163.92 173.17 194.92 177.67 224.31 213 217.03 177.9 207.44 163.22 174.52 168.19"/><polygon class="cls-7" points="236.35 152.61 231.53 157.59 227.19 191.96 235.39 210.91 248.39 166.59 263.65 149.57 236.35 152.61"/><polygon class="cls-12" points="207.44 163.22 224.31 213 235.39 210.91 231.53 157.59 207.44 163.22"/><polygon class="cls-5" points="163.92 173.17 194.44 151.49 207.44 163.22 163.92 173.17"/><polygon class="cls-5" points="231.53 157.59 237.8 141.05 263.65 149.57 231.53 157.59"/><polygon class="cls-8" points="230.57 217.34 235.39 210.91 224.31 213 230.57 217.34"/><path class="cls-8" d="M111.65,213.89c.8,0,10-4.5,10-4.5L126.9,230l-8-13.31Z"/><polygon class="cls-8" points="135.57 239.85 129.22 268.72 118.82 246.76 135.57 239.85"/><polygon class="cls-13" points="166.7 203.82 169.47 183.66 199.97 175.63 201.85 168.49 157.97 175.65 166.7 203.82"/><polygon class="cls-8" points="205.87 239.69 232.5 227.45 256.73 229.48 233.24 239.2 205.87 239.69"/><polygon class="cls-7" points="205.73 239.57 236.17 246.2 256.73 229.48 234.77 238.56 205.73 239.57"/><circle class="cls-14" cx="192.05" cy="183.9" r="6.95"/><circle class="cls-14" cx="253.18" cy="170.92" r="6.95"/><polygon class="cls-14" points="149.15 171.77 106.69 196.9 99.6 210.94 125.94 197.13 155.25 192.04 149.15 171.77"/><polygon class="cls-13" points="167.94 211.68 220.09 207.98 215.38 200.64 167.94 211.68"/><polygon class="cls-13" points="237.15 204.22 271.89 185.9 235.79 197.45 237.15 204.22"/><path class="cls-15" d="M205.54,160l-56.39,11.81L162,214.33l58.26-13.43L210.38,168l18.32-4.41,5.74,34.21,53.94-13.2-9-40.54Zm3.76,35.17-42.6,8.69-6.53-25.19,42.25-9.39Zm68.47-17.06-36.46,9.17-4.05-25.46,35.28-7.22Z"/></g></svg>