<svg xmlns="http://www.w3.org/2000/svg" viewBox="0 0 198 98.25"><polygon points="79.57 96.48 102.6 97.54 181.23 90.15 198 79.29 145.54 76.4 80.56 74.57 34.79 77.17 0 87.14 79.57 96.48" style="fill:#dddfe2"/><polygon points="17.42 87.3 20.95 88.42 40.38 88.13 46.39 84.83 30.82 80.89 23.2 82.03 12.52 85.68 17.42 87.3" style="fill:#232a38;opacity:0.1"/><polygon points="57.55 91.42 66.36 94.14 81.32 91.98 73.01 88.95 59.86 88.13 57.55 91.42" style="fill:#232a38;opacity:0.1"/><polygon points="100.2 92.92 109.64 94.43 107.65 97.06 102.6 97.54 94.72 95.84 86.71 95.84 96.43 91.31 100.2 92.92" style="fill:#232a38;opacity:0.1"/><polygon points="154.2 86.98 167.45 89.97 189.21 84.4 172.89 81.51 160.89 81.51 154.2 86.98" style="fill:#232a38;opacity:0.1"/><polygon points="135.52 29.73 137.01 37.03 139.7 55.26 132.73 56.96 114.02 54.7 117.73 34.16 135.52 29.73" style="fill:#404857"/><polygon points="80.56 74.57 80.14 81.51 105.53 85.19 110.48 77.4 80.56 74.57" style="fill:#abafb8"/><polygon points="106.24 79.03 118.48 75.35 145.73 72.31 146.49 80.87 105.53 85.19 106.24 79.03" style="fill:#89909b"/><polygon points="80.56 74.57 99.87 70.26 145.73 72.31 106.24 79.03 80.56 74.57" style="fill:#dddfe2"/><polygon points="138.13 73.6 135.43 72.55 128.49 71.54 120.07 71.16 112.31 69.8 97.64 71.84 95.75 73.6 107.09 75.14 108.22 74.22 110.77 74.79 116.85 74.22 117.8 72.05 119.96 73.87 128.49 75.32 138.13 73.6" style="fill:#232a38;opacity:0.1"/><polygon points="97.55 73.72 100.25 73.58 101.33 70.38 97.7 70.38 97.55 73.72" style="fill:#1e7678"/><polygon points="116.85 74.22 113.97 73.87 112.75 70.94 117.46 71.22 116.85 74.22" style="fill:#1e7678"/><polygon points="118.06 66.56 118.06 71 111 71.74 111.45 68.6 115.03 65.33 117.21 64.89 118.06 66.56" style="fill:#b3889d"/><polygon points="120.94 21.52 120.01 26.38 123.48 26.54 125.46 22.41 120.94 21.52" style="fill:#7c4f24"/><polygon points="136.97 25.3 138.09 31.77 130.19 32.13 129.7 28.2 135.33 23.98 136.97 25.3" style="fill:#9b6533"/><polygon points="138.95 21.21 136.97 25.3 133.1 27.93 127.2 25.57 132.21 19.52 138.95 21.21" style="fill:#7c4f24"/><polygon points="119.25 42.83 116.77 56.76 118.66 60.11 121.16 60.13 126.6 48.75 123.86 43.97 119.25 42.83" style="fill:#815c92"/><polygon points="134.16 40.19 137.01 37.03 139.84 36.93 139.6 40.1 134.91 42.22 133.39 41.56 134.16 40.19" style="fill:#96637c"/><polygon points="137.01 37.03 139.6 40.1 142.21 38.92 140.1 37.15 137.01 37.03" style="fill:#d1a1b8"/><polygon points="132.08 43.59 129.18 46.75 124.25 48.2 119.25 42.83 123.92 41.61 132.08 43.59" style="fill:#6c4d7b"/><polygon points="132.08 43.59 132.73 56.96 131.6 60.59 127.61 59.65 124.25 48.2 132.08 43.59" style="fill:#9471a4"/><polygon points="103.02 24.74 99.05 23.07 98.66 26.21 100.57 29.14 102.16 27.16 103.02 24.74" style="fill:#c3987b"/><polygon points="106.51 28.61 103.02 24.74 100.57 29.14 104.01 30.42 105.9 30.1 106.51 28.61" style="fill:#dfbda5"/><polygon points="120.01 26.38 112.49 30.91 110.87 33.08 111.08 35.19 117.73 34.16 120.1 30.86 120.01 26.38" style="fill:#7a578a"/><polygon points="135.52 29.73 142.98 35.66 142.21 38.92 131.06 34.88 135.52 29.73" style="fill:#7a578a"/><polygon points="117.73 34.16 120.01 39.53 124.83 41.61 131.56 41.23 132.08 36.56 124.83 34.11 117.73 34.16" style="fill:#7a578a"/><polygon points="122.58 26.42 120.01 26.38 117.73 34.16 132.08 36.56 135.52 29.73 130.58 26.88 122.58 26.42" style="fill:#9471a4"/><polygon points="120.01 26.38 123.86 31.24 125.38 32.06 127.16 32.03 135.52 29.73 133.1 27.93 123.08 25.26 120.01 26.38" style="fill:#96637c"/><polygon points="117.99 5.6 118.33 6.9 117.69 7.7 115.78 21.05 122.3 22.75 124.27 26.49 126.2 27.73 130.01 24.93 133.11 20.88 132.22 7.7 125.56 3.29 117.99 5.6" style="fill:#dfbda5"/><polygon points="123.08 24.01 126.2 23.72 132.22 7.7 134.94 18 132.54 22.05 130.57 26.1 126.16 28.68 123.74 27.37 123.08 25.26 123.08 24.01" style="fill:#c3987b"/><polygon points="118.33 10.82 122.3 15.99 126.64 12.76 125.02 11.78 123.08 11.94 121.77 11.6 120.31 10.83 118.33 10.82" style="fill:#c3987b"/><polygon points="121.77 11.6 120.31 15.5 121.15 15.99 122.3 15.99 123.08 11.94 121.77 11.6" style="fill:#e8cab6"/><polygon points="120.31 15.5 121.12 16.72 122.3 15.99 120.31 15.5" style="fill:#8b6651"/><circle cx="119.52" cy="12.91" r="0.62" style="fill:#232a38"/><circle cx="124.48" cy="14.15" r="0.62" style="fill:#232a38"/><polygon points="118.33 10.82 121.77 11.6 121.69 10.82 118.9 10.32 118.33 10.82" style="fill:#9b6533"/><polygon points="123.08 11.94 123.65 11.3 126.43 12.09 126.64 12.76 123.08 11.94" style="fill:#9b6533"/><polygon points="125.59 3.75 130.01 7.8 131.05 10.82 133.99 19.94 138.09 19.65 137.94 9.64 136.95 3.75 130.01 0 123.86 2.8 125.59 3.75" style="fill:#af7546"/><polygon points="131.05 10.82 125.59 3.75 132.08 8.17 136.95 3.75 139.49 9.41 138.54 10.96 139.34 12.76 138.95 21.21 132.54 22.05 131.05 10.82" style="fill:#9b6533"/><polygon points="117.99 5.6 123.08 0.45 130.01 0 125.59 3.75 117.99 5.6" style="fill:#cc9262"/><polygon points="117.99 5.6 132.08 8.17 132.34 9.76 131.05 10.82 117.69 7.7 117.99 5.6" style="fill:#96637c"/><polygon points="122.1 7.7 123.86 6.71 124.86 8.21 123.08 9 122.1 7.7" style="fill:#c3b0cc"/><polygon points="132.08 8.17 139.49 9.41 139.34 12.76 131.05 10.82 132.08 8.17" style="fill:#734d61"/><polygon points="122.3 22.75 128.62 24.27 123.08 25.26 122.3 22.75" style="fill:#8b6651"/><polygon points="118.08 16.81 119.58 17.49 120.92 17.43 122.08 18.09 124.2 18.21 121.69 20.13 119.17 19.59 118.08 16.81" style="fill:#6c4d7b"/><polygon points="119.19 19.25 121.74 20.13 122.81 19.14 118.72 18.19 119.19 19.25" style="fill:#583f64"/><polygon points="118.85 17.79 122.81 18.8 122.36 19.25 118.89 18.36 118.85 17.79" style="fill:#fff"/><polygon points="118.08 16.81 118.85 17.79 119.27 18.97 121.69 19.62 122.81 18.8 124.2 18.21 121.75 20.42 118.91 19.7 118.08 16.81" style="fill:#88619a"/><polygon points="123.08 25.26 125.86 26.89 126.63 27.81 126 29.3 123.86 27.77 123.08 25.26" style="fill:#cfbfd6"/><polygon points="125.86 26.89 130.57 26.1 133.1 27.93 126 29.3 125.86 26.89" style="fill:#b7a0c2"/><polygon points="126 29.3 123.86 31.24 125.01 32.63 127.16 32.03 126 29.3" style="fill:#d1a1b8"/><polygon points="122.25 32.13 128.05 33.19 129.82 36.24 123.83 40.1 120.2 34.58 122.25 32.13" style="fill:#cfbfd6"/><polygon points="127.74 35.19 125.25 33.19 123.1 34.7 124.75 36.89 124.33 37.34 122.93 36.14 122.25 37.01 124.23 38.94 126.83 36.96 124.87 34.98 125.36 34.53 126.92 36.09 127.74 35.19" style="fill:#96637c"/><polygon points="111.24 32.13 110.85 30.28 106.51 28.61 104.01 30.42 108.88 33.7 111.24 32.13" style="fill:#96637c"/><polygon points="106.51 28.61 104.39 28.18 104.01 24.14 105.14 23.8 106.51 28.61" style="fill:#c3987b"/><polygon points="120.01 39.53 131.56 41.23 132.08 43.59 119.25 42.83 120.01 39.53" style="fill:#d1a1b8"/><polygon points="123.83 40.1 122.58 41.61 123.83 43.1 125.27 41.48 123.83 40.1" style="fill:#e7dfea"/><polygon points="129.69 66.75 128.22 72.55 135.43 72.55 133.17 66.04 131.06 65.14 129.69 66.75" style="fill:#b3889d"/><polygon points="128.01 61.02 130.82 59.26 132.85 59.37 133.17 66.04 129.69 66.75 128.01 61.02" style="fill:#734d61"/><polygon points="128.01 61.02 132.86 59.36 132.73 56.96 127.61 59.65 128.01 61.02" style="fill:#d1a1b8"/><polygon points="135.43 72.55 131.82 70.4 128.22 72.55 131.82 73.28 135.43 72.55" style="fill:#96637c"/><rect x="128.22" y="72.55" width="7.22" height="1.46" style="fill:#734d61"/><rect x="108.83" y="71" width="9.24" height="1.46" style="fill:#734d61"/><polygon points="112.49 30.91 111.08 35.19 108.88 33.7 110.85 30.28 112.49 30.91" style="fill:#d1a1b8"/><polygon points="134.16 40.19 131.82 38.92 130.82 41.56 132.08 43.59 134.91 42.22 134.16 40.19" style="fill:#dfbda5"/><polygon points="131.82 38.92 128.49 40.78 129.82 44.92 132.08 43.59 131.82 38.92" style="fill:#c3987b"/><polygon points="116.33 58.89 115.03 65.33 118.06 66.56 120.58 61.32 118.52 59.46 116.33 58.89" style="fill:#734d61"/><polygon points="120.58 61.32 121.16 60.13 116.77 56.76 116.33 58.89 120.58 61.32" style="fill:#d1a1b8"/><polygon points="111.45 68.6 113.18 71 108.83 71 111.45 68.6" style="fill:#96637c"/><polygon points="107.09 75.14 110.77 74.79 111.61 72.71 116 72.49 116.85 74.22 119.96 73.87 121.17 44.65 110.68 44.62 107.23 62.48 107.09 75.14" style="fill:#359496"/><polygon points="95.56 39.53 94.21 73.28 97.55 73.72 98.85 71.61 102.98 72.2 103.62 74.57 107.09 75.14 110.68 44.62 106.31 41.4 95.56 39.53" style="fill:#4fa9aa"/><polygon points="98.95 44.65 107.23 47.27 104.33 66.72 97.96 66.08 98.95 44.65" style="fill:#72cbcc"/><polygon points="113.1 48.82 116.92 49.39 117.63 67.5 111.19 67.64 113.1 48.82" style="fill:#4fa9aa"/><polygon points="104.01 30.42 102.51 40.15 104.73 40.81 105.56 31.47 105.26 30.42 104.01 30.42" style="fill:#55a2bb"/><polygon points="104.01 30.42 108.72 26.94 109.35 27.13 109.35 27.93 105.56 31.47 104.01 30.42" style="fill:#89909b"/><polygon points="108.72 24.74 110.79 23.07 113.51 23.56 112.17 25.53 110.06 26.57 108.72 24.74" style="fill:#67acc3"/><polygon points="113.51 23.56 113.9 26.38 112.17 28.26 110.06 26.57 113.51 23.56" style="fill:#3b88a1"/><polygon points="108.72 26.94 108.72 24.74 112.17 28.26 109.35 27.93 108.72 26.94" style="fill:#347990"/><polygon points="111.39 22.58 113.51 23.56 113.23 24.58 112.35 24.58 110.79 23.07 111.39 22.58" style="fill:#72cbcc"/><polygon points="113.51 23.56 114.59 25.62 113.9 26.38 112.35 24.58 113.51 23.56" style="fill:#4fa9aa"/><polygon points="94.42 36.93 111.24 40.32 115.49 43.59 110.68 44.62 93.5 40.1 94.42 36.93" style="fill:#f4d75c"/><polygon points="111.24 40.32 110.68 44.62 124.25 48.2 125.48 43.2 111.24 40.32" style="fill:#d8a537"/><polygon points="30.82 79.56 30.82 83.42 39.03 84.38 38.07 80.58 34.79 77.17 31.68 77.67 30.82 79.56" style="fill:#67acc3"/><polygon points="31.91 56.84 25.03 66.7 27.99 73.46 31.42 74.02 33.52 68.39 31.91 56.84" style="fill:#51596a"/><polygon points="16.64 58.11 23.63 61.32 26.83 65.47 24.76 72.53 21.09 75.47 17.42 70.84 16.64 58.11" style="fill:#5f6878"/><polygon points="16.64 58.11 26.83 65.47 31.91 56.84 16.64 58.11" style="fill:#454d5d"/><polygon points="32.86 37.55 36.53 45.74 30.82 48.12 32.86 37.55" style="fill:#4b9db7"/><polygon points="19.79 37.46 17.25 39.01 26.11 44.11 28.98 36.59 26.83 36.04 19.79 37.46" style="fill:#efd3c2"/><polygon points="33.66 15.02 35.3 32.17 28.19 33.52 24.34 38.71 20.05 36.7 13.85 27.46 20.3 15.75 21.96 14.4 33.66 15.02" style="fill:#efd3c2"/><polygon points="26.83 36.04 26.62 34.32 20.3 15.75 13.8 21.03 12.29 28.04 15.22 31.71 16.4 32.02 16.95 33.88 19.79 37.46 24.7 40 26.83 36.04" style="fill:#d0af96"/><polygon points="28.19 33.52 21.75 34.67 26.83 36.04 28.19 33.52" style="fill:#a9846c"/><polygon points="15.22 31.71 18.07 30.15 16.95 33.88 15.22 31.71" style="fill:#a9846c"/><polygon points="13.85 28.36 15.5 27.39 16.4 29.39 13.85 28.36" style="fill:#a9846c"/><polygon points="33.58 20.55 29.72 25.55 25.31 22.08 27.1 20.95 29.01 21.21 29.83 21.41 30.5 20.88 31.82 20.17 33.58 20.55" style="fill:#d0af96"/><polygon points="29.01 21.21 29.72 25.55 30.72 25.67 31.57 25.17 30.5 20.88 29.01 21.21" style="fill:#f7e6dc"/><polygon points="31.57 25.17 30.91 26.36 29.72 25.55 31.57 25.17" style="fill:#a9846c"/><polygon points="33.23 27.08 27.49 28.07 29.72 30.02 32.42 29.51 33.23 27.08" style="fill:#a9846c"/><polygon points="28.85 28.38 32.44 27.72 32.03 29.07 29.91 29.45 28.85 28.38" style="fill:#fff"/><circle cx="27.79" cy="23.28" r="0.56" style="fill:#232a38"/><circle cx="32.29" cy="22.4" r="0.56" style="fill:#232a38"/><polygon points="33.66 15.02 29.01 10.8 19.56 12.09 16 13.29 11.23 17.66 14.51 23.84 18.07 26.55 19.56 25.17 20.77 17.13 26.83 17.41 28.85 15.15 31.03 15.94 33.66 15.02" style="fill:#74665b"/><polygon points="29.01 21.21 28.34 20.42 25.66 21.45 25.31 22.08 29.01 21.21" style="fill:#74665b"/><polygon points="30.5 20.88 30.79 20.01 33.23 19.99 33.58 20.55 30.5 20.88" style="fill:#74665b"/><polygon points="20.77 17.13 17.25 15.15 11.23 17.66 11.58 21.03 13.44 22.72 12.06 25.77 12.29 28.04 15.58 26.05 18.41 28.8 20.61 27.72 20.77 17.13" style="fill:#5f5044"/><polygon points="31.03 15.94 29.01 10.8 18.41 11.08 16 13.29 23.8 13.78 26.83 17.41 31.03 15.94" style="fill:#8e7e73"/><polygon points="20.73 19.35 11.58 21.03 12.06 25.77 20.73 19.35" style="fill:#74665b"/><polygon points="16.4 40.39 15.12 41.66 18.07 56.65 22.12 59.97 26.07 61.32 28.19 59.69 30.36 56.09 31.39 38.16 29.92 38.16 25.68 42.91 16.4 40.39" style="fill:#4b9db7"/><polygon points="28.98 36.59 30.5 37.84 29.41 42.22 26.49 45.43 25.52 45.43 16.4 40.39 17.25 39.01 25.5 42.35 28.98 36.59" style="fill:#388199"/><polygon points="13.85 41.09 19.79 37.46 22.76 49.17 22.12 59.97 16.64 58.11 15.39 50.49 16.4 46.11 13.85 41.09" style="fill:#72cbcc"/><polygon points="26.83 36.04 28.56 47.81 28.19 59.69 31.91 56.84 32.86 37.55 26.83 36.04" style="fill:#72cbcc"/><polygon points="13.85 41.09 15.39 50.49 22.41 55.15 21.75 48.72 13.85 41.09" style="fill:#4b9db7"/><polygon points="36.53 45.74 32.46 45.63 25.52 46.54 22.76 45.2 17.54 44.65 18.31 46.96 21.75 48.72 23.26 48.12 34.13 51.18 36.53 45.74" style="fill:#efd3c2"/><polygon points="25.52 45.43 22.76 45.2 21.75 48.72 24.37 48.12 25.52 45.43" style="fill:#68707f"/><polygon points="30.23 41.3 32.61 42.57 32.46 45.63 30.82 43.47 30.23 41.3" style="fill:#efd3c2"/><polygon points="21.75 48.72 25.52 45.43 27.29 44.88 27.91 43.34 30.23 41.3 32.46 45.63 29.01 47.31 28.19 47.08 28.19 48.29 22.41 55.15 21.75 48.72" style="fill:#f7e6dc"/><polygon points="29.01 47.31 27.91 43.34 25.52 45.43 28.19 48.29 29.01 47.31" style="fill:#68707f"/><polygon points="17.54 44.65 15.76 48.29 17.94 49.55 21.75 48.72 17.54 44.65" style="fill:#d0af96"/><polygon points="24.76 72.53 17.42 70.84 17.87 78.13 20.92 79.03 23.56 76.62 24.76 72.53" style="fill:#51596a"/><polygon points="27.99 73.46 33.52 68.39 34.12 72.55 31.96 76.22 29.04 75.72 27.99 73.46" style="fill:#454d5d"/><polygon points="22.41 80.56 25.03 85.37 17.42 85.37 18.13 82.4 20.11 80.56 22.41 80.56" style="fill:#67acc3"/><polygon points="17.42 85.37 21.23 83.72 25.03 85.37 21.23 86.34 17.42 85.37" style="fill:#3e90aa"/><rect x="17.42" y="85.37" width="7.61" height="1.93" style="fill:#347990"/><polygon points="38.07 80.58 35.64 83.99 40.8 83.42 38.07 80.58" style="fill:#3e90aa"/><rect x="30.82" y="83.42" width="9.98" height="1.93" style="fill:#347990"/><polygon points="18.13 82.4 19.84 81.67 20.39 80.89 20.92 81.2 22.41 80.56 23.56 76.62 21.23 77.24 20.71 77.93 20.1 77.54 17.87 78.13 18.13 82.4" style="fill:#3e90aa"/><polygon points="30.82 79.56 29.04 75.72 32.55 73.53 33.82 74.59 33.7 77.83 30.82 79.56" style="fill:#3e90aa"/><polygon points="20.1 77.54 19.84 81.67 20.92 81.2 21.23 77.24 20.1 77.54" style="fill:#a0cbd9"/><polygon points="32.55 73.53 33.7 77.83 34.79 77.17 34.12 72.55 32.55 73.53" style="fill:#a0cbd9"/><polygon points="161.38 29.21 163.05 34.87 163.99 35.29 164.39 33.92 163.59 29.73 161.84 28.05 161.38 29.21" style="fill:#787f8d"/><polygon points="188.3 54.41 182.34 47.2 176.61 48.2 180 57.34 188.3 54.41" style="fill:#72cbcc"/><polygon points="185.38 54.86 188.3 54.41 186.25 66.35 179.67 65.73 180.52 56.2 185.38 54.86" style="fill:#4fa9aa"/><polygon points="160.5 13.49 156.4 14.16 154.41 17.38 158.23 17.38 161.04 16.66 160.5 13.49" style="fill:#d8bca9"/><polygon points="151.09 20.01 154.64 18.74 157.22 19.37 155.83 20.5 153.9 21.07 151.09 20.01" style="fill:#9a9fa9"/><polygon points="155.83 20.5 151.09 20.01 153.46 22.68 155.83 22.83 155.83 20.5" style="fill:#787f8d"/><polygon points="152.08 22.6 153.46 22.68 152.93 20.2 152.46 19.51 151.09 20.01 152.08 22.6" style="fill:#72cbcc"/><polygon points="151.09 20.01 152.93 20.2 154.64 18.74 153.02 18.35 151.09 20.01" style="fill:#94d5d5"/><polygon points="154.41 17.38 161.38 15.51 160.53 18.35 156.82 18.35 154.41 17.38" style="fill:#89909b"/><polygon points="160.53 18.35 154.41 17.38 155.65 24.8 160.85 25.76 160.53 18.35" style="fill:#545c6d"/><polygon points="182.88 30.48 177.87 29.05 174.95 31 177.54 33.66 182.88 30.48" style="fill:#4fa9aa"/><polygon points="175.97 78.84 172.89 81.51 175.65 83.53 181.77 83.06 181.77 81.01 179.97 79.03 175.97 78.84" style="fill:#4fa9aa"/><polygon points="165.19 83.84 165.19 85.19 159.7 85.7 154.2 85.19 160.64 79.88 163.82 79.88 165.19 83.84" style="fill:#4fa9aa"/><polygon points="181.32 59.26 181.55 70.4 180.42 75.7 174.63 75.14 170.14 62.72 181.32 59.26" style="fill:#68707f"/><polygon points="161.27 55.7 172.59 64.39 181.32 59.26 181.08 52.97 161.27 55.7" style="fill:#576071"/><polygon points="161.27 55.7 160.89 70.13 164.39 76.99 168.29 75.7 172.59 64.39 161.27 55.7" style="fill:#787f8d"/><rect x="154.2" y="85.18" width="10.99" height="1.79" style="fill:#1e7678"/><polygon points="172.89 83.3 175.51 84.85 181.77 84.85 181.77 83.06 175.8 83.06 172.89 81.51 172.89 83.3" style="fill:#1e7678"/><polygon points="174.63 75.14 181.55 70.4 181.77 81.01 175.97 78.84 174.63 75.14" style="fill:#576071"/><polygon points="165.19 83.84 160.64 79.88 160.89 70.13 168.29 75.7 165.19 83.84" style="fill:#68707f"/><polygon points="178.2 53.73 178.58 57.78 175.52 58.68 174.63 54.58 178.2 53.73" style="fill:#787f8d"/><polygon points="171.18 57.78 170.75 59.86 167.45 59.26 167.45 55.43 171.18 57.78" style="fill:#787f8d"/><polygon points="167.78 33.19 164.39 33.92 175.8 39.53 179.67 31 176.84 31.47 167.78 33.19" style="fill:#576071"/><polygon points="164.39 33.92 174.52 37.46 179.67 31 182.88 30.48 180.52 44.48 171.18 49.38 162.31 48.73 164.39 33.92" style="fill:#4298b4"/><polygon points="162.31 48.73 180.52 44.48 181.08 52.97 171.18 57.78 161.27 55.7 162.31 48.73" style="fill:#67acc3"/><polygon points="154.16 24.8 155.19 22.05 160.52 23.14 159.11 28.68 157.22 27.93 154.16 24.8" style="fill:#d8bca9"/><polygon points="158.82 31 159.11 28.68 154.16 24.8 155.43 31 157.22 31.64 158.82 31" style="fill:#b48c71"/><polygon points="156.4 39.57 155.43 31 158.82 31 162.31 39.57 156.4 39.57" style="fill:#d0ab92"/><polygon points="164.39 33.92 165.84 41.92 157.1 44.9 156.4 39.57 164.39 33.92" style="fill:#4fa9aa"/><polygon points="159.77 11.78 159.11 28.68 163.59 29.73 167.41 28.68 168.87 31.47 173.21 33.19 174.34 29.3 178.02 28.68 172.41 19.52 164.25 10.47 159.77 11.78" style="fill:#d0ab92"/><polygon points="164.25 10.47 163.59 29.73 165.19 30.1 167.78 33.19 174.01 34.63 176.84 31.47 178.02 28.68 172.41 19.52 164.25 10.47" style="fill:#b48c71"/><polygon points="165.19 30.1 169.41 31.07 167.78 33.19 165.19 30.1" style="fill:#83624d"/><polygon points="171.93 24.89 167.86 24.8 172.17 28.52 172.5 25.88 171.93 24.89" style="fill:#83624d"/><polygon points="167.94 23.35 168.56 20.71 170.75 21.33 167.94 23.35" style="fill:#83624d"/><polygon points="159.77 11.78 163 9.34 166.79 8.74 167.94 5.6 180 8.17 180 17.93 180.52 25.62 172.93 27.73 172.83 18.61 166.7 18.47 165.19 20.13 164.06 13.97 159.77 11.78" style="fill:#74665b"/><polygon points="164.06 13.97 175.14 12.76 180 8.17 183.21 18.35 182.73 28.52 177.87 29.05 173.51 27.57 171.18 20.24 167.86 19.52 165.19 21.83 163.99 16.66 164.06 13.97" style="fill:#5f5044"/><polygon points="163 9.34 175.14 12.76 167.94 5.6 163 9.34" style="fill:#8e7e73"/><polygon points="175.14 12.76 177.87 29.05 171.58 29.73 171.18 20.24 175.14 12.76" style="fill:#46382d"/><polygon points="167.86 19.52 163.99 16.66 163.82 22.83 165.52 23.35 167.86 19.52" style="fill:#46382d"/><polygon points="180 8.17 182.73 28.52 184.69 17.96 180 8.17" style="fill:#74665b"/><polygon points="164.39 33.92 167.78 33.19 185.38 54.86 181.25 57.34 164.39 33.92" style="fill:#4b5464"/><polygon points="181.32 54.67 181.88 53.28 183.3 53.98 182.31 55.43 181.32 54.67" style="fill:#359496"/><polygon points="55.92 45.22 54.86 55.86 59.11 57.41 59.86 52.88 55.92 45.22" style="fill:#b18d79"/><polygon points="55.2 88.95 55.56 86.75 58.86 88.62 55.2 88.95" style="fill:#916a59"/><polygon points="57.55 90.07 55.2 88.95 58.09 85.83 58.6 88.55 57.55 90.07" style="fill:#b18d79"/><polygon points="57.24 80.03 57.86 84.22 58.39 85.02 58.09 85.83 57.55 90.07 59.58 90.46 61.94 90.07 61.41 86.02 61.21 85.41 61.61 85.03 63.64 75.32 57.24 80.03" style="fill:#b18d79"/><polygon points="74.32 76.99 75.7 83.71 75.33 84.95 76.16 85.9 78.2 87.78 78.04 88.69 79.01 88.52 81.32 90.64 76.86 91.19 73.01 90.64 73.01 87.07 73.22 86.31 72.31 85.9 66.36 75.92 74.32 76.99" style="fill:#b18d79"/><polygon points="77.34 45.84 74.63 43.42 70.76 44.26 72.27 46.33 77.34 45.84" style="fill:#b18d79"/><polygon points="75.85 49.7 77.34 45.84 72.55 45.44 72.27 47.42 72.84 49.96 75.85 49.7" style="fill:#916a59"/><polygon points="75.1 56.75 75.72 50.9 72.55 49.02 72.27 52.88 75.1 56.75" style="fill:#916a59"/><polygon points="75.85 49.7 72.55 49.02 72.55 50.47 75.72 50.9 75.85 49.7" style="fill:#a0cf7e"/><polygon points="57.56 60.36 55.48 64.32 57.24 80.03 74.32 76.99 71.24 62.16 63.97 56.36 57.56 60.36" style="fill:#a0cf7e"/><polygon points="78.26 22.33 78.73 37.06 76.06 37.53 71.14 36.69 68.82 40.93 65.1 41.87 63.97 38.85 65.52 28.8 75.24 22.21 78.26 22.33" style="fill:#b18d79"/><polygon points="75.24 22.21 76.06 37.53 73.12 38.05 71.22 39.28 71.05 40.51 69.91 41.87 64.96 43.42 62.27 40.51 64.01 27.67 71.8 22.08 75.24 22.21" style="fill:#916a59"/><polygon points="73.12 38.05 68.4 38.95 71.05 40.51 73.12 38.05" style="fill:#66483a"/><polygon points="71.87 33.13 68.43 33.27 67.98 34.56 69.17 35.3 71.87 33.13" style="fill:#66483a"/><polygon points="69.17 30.23 70.76 29.87 71.32 32.17 69.17 30.23" style="fill:#66483a"/><polygon points="78.26 22.33 69.58 16.43 63.2 19.55 59.67 19.38 55.48 27.98 58.45 33.71 62.27 36.69 69.17 35.3 65.9 29.3 70.76 27.28 73.12 28.8 75.39 24.97 78.26 22.33" style="fill:#545c6d"/><polygon points="75.39 24.97 62.27 22.67 55.48 27.98 57.24 35.06 62.27 38.05 67.6 34.21 68.4 29.45 71.35 28.95 73.65 32.04 75.39 24.97" style="fill:#404857"/><polygon points="69.58 16.43 62.27 22.67 59.67 19.38 69.58 16.43" style="fill:#68707f"/><polygon points="68.4 29.45 62.27 22.67 57.99 24.43 55.48 27.98 57.24 35.06 63.2 34.14 68.4 29.45" style="fill:#343c4b"/><polygon points="57.24 35.06 68.4 29.45 69.17 35.3 62.27 40.51 57.24 35.06" style="fill:#29303e"/><polygon points="62.27 22.67 58.68 15.65 51.23 21.59 55.48 25.46 62.27 22.67" style="fill:#545c6d"/><polygon points="62.27 22.67 51.23 21.59 55.48 27.98 62.27 22.67" style="fill:#454d5d"/><polygon points="64.96 43.42 72.55 45.44 73.12 54.21 69.58 57.51 59.67 55.48 55.92 45.22 58.78 44.66 59.72 45.22 60.77 44.26 64.96 43.42" style="fill:#a0cf7e"/><polygon points="73.12 54.21 55.92 45.22 59.11 57.41 70.76 59.84 73.12 54.21" style="fill:#86b264"/><polygon points="55.48 64.32 72.64 68.92 74.32 76.99 57.24 80.03 55.48 64.32" style="fill:#86b264"/><polygon points="70.76 59.84 59.11 57.41 57.56 60.36 71.24 62.16 70.76 59.84" style="fill:#28835c"/><polygon points="62.27 40.51 69.91 41.87 72.55 45.44 64.9 45.84 60.77 44.26 62.27 40.51" style="fill:#f4d75c"/><polygon points="69.91 41.87 64.96 43.42 62.27 40.51 60.77 44.26 64.9 45.84 66.87 45.22 72.55 45.44 69.91 41.87" style="fill:#e4ae3a"/><polygon points="60.77 44.26 59.96 49.7 56.79 48.54 58.78 44.66 60.77 44.26" style="fill:#e4ae3a"/><polygon points="64.96 43.42 64.9 45.84 72.55 45.44 64.96 43.42" style="fill:#b68b2e"/><polygon points="72.55 45.44 67.98 51.52 71.32 58.5 75.1 56.75 72.55 45.44" style="fill:#b18d79"/><polygon points="81.32 90.64 81.85 88.13 78.03 90.64 79.01 91.19 81.32 90.64" style="fill:#916a59"/><polygon points="76.16 85.9 73.01 87.07 72.31 85.9 75.7 83.71 76.16 85.9" style="fill:#267a56"/><polygon points="78.03 90.64 79.01 88.52 78.2 87.78 75.89 91.19 78.03 90.64" style="fill:#267a56"/><rect x="73.01" y="90.64" width="8.31" height="1.34" style="fill:#267a56"/><polygon points="61.41 86.02 58.09 85.83 57.86 84.22 61.61 85.03 61.41 86.02" style="fill:#267a56"/><rect x="57.55" y="90.07" width="4.39" height="1.34" style="fill:#267a56"/><polygon points="57.55 91.42 55.2 90.3 55.2 88.95 57.55 90.07 58.01 90.64 57.55 91.42" style="fill:#267a56"/><polygon points="56.66 87.37 55.81 89.66 56.66 89.65 57.55 86.41 56.66 87.37" style="fill:#267a56"/><polygon points="105.73 85.16 104.49 95.06 102.09 95.14 101.33 86.41 105.73 85.16" style="fill:#5f5044"/><polygon points="96.73 94.14 102.09 95.14 102.6 97.54 94.72 97.17 96.73 94.14" style="fill:#5f5044"/><polygon points="98.36 68.84 93.5 71.68 92.44 78.79 93.22 80.03 92.04 81.41 86.15 88.13 88.6 95.37 94.72 97.17 100.2 92.92 105.73 85.16 103.8 79.03 107.31 73.28 103.55 70.26 98.36 68.84" style="fill:#74665b"/><polygon points="99.14 82.89 86.15 88.13 92.04 81.41 95.31 80.99 99.14 82.89" style="fill:#8e7e73"/><polygon points="107.31 73.28 99.83 77.07 99.14 82.89 105.2 84.1 106.19 81.67 107.31 73.28" style="fill:#5f5044"/><polygon points="86.15 88.13 90.32 92.74 93.5 93.78 94.72 97.17 87.63 96.85 86.15 88.13" style="fill:#5f5044"/><polygon points="90.32 92.74 97.55 88.51 100.2 92.92 94.72 97.17 90.32 92.74" style="fill:#8e7e73"/><polygon points="90.32 92.74 87.17 94.13 84.06 95.84 84.93 96.73 87.63 96.85 90.32 92.74" style="fill:#74665b"/><polygon points="87.17 94.13 83.42 98.25 79.57 96.48 84.51 92.32 87.17 94.13" style="fill:#8e7e73"/><polygon points="97.55 67.64 94.6 63.6 91.77 67.64 93.5 71.68 96.19 70.08 97.55 67.64" style="fill:#74665b"/><polygon points="104.07 68.6 108.27 65.14 109.52 70.38 107.31 73.28 104.89 71.68 104.07 68.6" style="fill:#74665b"/><polygon points="97.55 67.64 99.87 64.7 101.02 65.39 102.81 65.14 104.07 68.6 100.41 69.8 97.55 67.64" style="fill:#74665b"/><polygon points="99.87 64.7 101.18 66.08 102.81 65.14 99.87 64.7" style="fill:#454d5d"/><polygon points="97.55 67.64 104.07 68.6 107.31 73.28 99.83 77.07 93.5 71.68 97.55 67.64" style="fill:#8e7e73"/><polygon points="99.14 82.89 92.04 81.41 92.44 78.79 99.42 80.52 100.81 81.82 99.14 82.89" style="fill:#d1a1b8"/><polygon points="99.14 82.89 105.73 85.16 106.19 81.67 99.42 80.52 99.14 82.89" style="fill:#b3889d"/><path d="M99.21,54.66l-3.43-3-3.67,4.48,6.79,5.21,6.83-4.23s-3.15-5.14-3.2-4.88A28.36,28.36,0,0,1,99.21,54.66Z" transform="translate(-0.68 -0.8)" style="fill:#96637c"/></svg>